<svg xmlns="http://www.w3.org/2000/svg" xmlns:xlink="http://www.w3.org/1999/xlink" version="1.1" id="Layer_1" x="0px" y="0px" style="enable-background:new 0 0 612 612;" xml:space="preserve" viewBox="41.1 150.28 550.9 187.62">
<style type="text/css">
	.st0{fill:#F96239;}
	.st1{fill:#102036;}
	.st2{fill:#FFFFFF;}
	.st3{fill:#0099A8;}
</style>
<g>
	<g>
		<path class="st0" d="M265.6,150.3h39.3h8.6c23.7-0.7,47,16,41,50.8c-5.3,30.8-31.7,45.5-56.5,45.5h-19l-3.2,15.2    c-2.6,8.8-8.9,14.9-18.1,14.9h-19.4L265.6,150.3z"/>
		<path class="st1" d="M227.4,150.3h-33.9l-16.6,77c-2.2,10,5.5,19.5,15.7,19.5h38.9l6.5-33.3h-23.7L227.4,150.3z"/>
		<path class="st1" d="M165,150.3h-12.7h-2.7v0.2c-5.6,0.9-10.5,4.5-13,9.7l-16.3,34.2l1-44.1h-12H97.5h-10    c-7.3,0-13.6,5.1-15.1,12.3l-17.8,84.2h33.7l8.7-33.3l-1.7,33.3H121l14.7-33.3l-6.4,33.3h34.2l20.3-96.4L165,150.3L165,150.3z"/>
		<path class="st2" d="M305,173.1c-13.1,0-23.7,10.6-23.7,23.7s10.6,23.7,23.7,23.7s23.7-10.6,23.7-23.7    C328.7,183.8,318.1,173.1,305,173.1z M320.5,185.9c1.6-0.5,3.4,1,4,3.3s-0.1,4.5-1.7,4.9c-1.6,0.5-3.4-1-4-3.3    C318.2,188.5,318.9,186.3,320.5,185.9z M305.8,175.7c2.3,0.1,4.2,1.4,4.1,2.9s-2,2.6-4.4,2.5c-2.3-0.1-4.2-1.4-4.1-2.9    S303.5,175.6,305.8,175.7z M285.4,187.7c0.7-2.3,2.5-3.7,4-3.3c1.6,0.5,2.3,2.7,1.7,4.9c-0.7,2.3-2.5,3.7-4,3.3    C285.5,192.2,284.7,190,285.4,187.7z M291.5,211c-1.1,1-3.3,0.3-4.8-1.5s-1.8-4-0.7-5c1.1-1,3.3-0.3,4.8,1.5    C292.4,207.8,292.7,210,291.5,211z M306.4,218c-2.3,0.6-4.4,0-4.8-1.4s1.1-3.1,3.4-3.7c2.3-0.6,4.4,0,4.8,1.4    C310.2,215.6,308.7,217.3,306.4,218z M306.2,202.3c-2.8,0-5.1-2.3-5.1-5.1s2.3-5.1,5.1-5.1c2.8,0,5.1,2.3,5.1,5.1    C311.3,200,309,202.3,306.2,202.3z M322.8,208c-1.4,1.9-3.6,2.6-4.9,1.6s-1.2-3.3,0.2-5.2c1.4-1.9,3.6-2.6,4.9-1.6    S324.3,206.1,322.8,208z"/>
	</g>
	<g>
		<g>
			<path class="st1" d="M137.2,283.4c-0.4-0.2-0.8-0.6-1.2-1.1l-0.3,1.1h-3.4l3-20.8h3.9l-1,6.7c0.4-0.3,0.8-0.5,1.3-0.6     s0.9-0.2,1.4-0.2c1.2,0,2.2,0.4,2.8,1.3s1,2.1,1,3.9c0,0.7-0.1,1.5-0.2,2.4c-0.7,5.2-2.6,7.7-5.7,7.7     C138.2,283.8,137.6,283.6,137.2,283.4z M139.7,278.8c0.3-0.5,0.6-1.4,0.8-2.7c0.1-0.6,0.1-1.1,0.1-1.5c0-0.7-0.1-1.1-0.3-1.4     s-0.6-0.5-1-0.5c-0.6,0-1.2,0.3-1.6,0.8l-0.8,5.2c0.3,0.6,0.8,0.9,1.4,0.9C138.9,279.6,139.4,279.3,139.7,278.8z"/>
			<path class="st1" d="M146.1,288.8c-0.6-0.1-1.1-0.1-1.3-0.2l0.6-4.1c0.3,0.1,0.6,0.2,1,0.3c0.4,0.1,0.8,0.1,1.1,0.1     c1.2,0,2.1-0.1,2.7-0.4c0.6-0.3,1-0.8,1.1-1.4l0.1-0.6c-1,0.9-2.2,1.4-3.5,1.4c-0.9,0-1.6-0.4-2.2-1.2c-0.5-0.8-0.8-1.8-0.8-3.1     c0-0.4,0-0.9,0.1-1.4l1.3-9.2h3.9l-1.3,8.8c0,0.3-0.1,0.6-0.1,0.8c0,0.4,0.1,0.7,0.2,0.8c0.2,0.2,0.5,0.2,0.9,0.2     c0.3,0,0.6-0.1,1-0.3c0.3-0.2,0.6-0.5,0.9-0.8l1.4-9.6h3.9l-1.8,12.7c-0.3,2.4-1.1,4.2-2.3,5.5s-3.1,1.9-5.6,1.9     C147.2,288.9,146.7,288.9,146.1,288.8z"/>
		</g>
	</g>
	<g>
		<g>
			<g>
				<path class="st3" d="M364.2,336.7c-0.3-0.2-0.6-0.5-0.8-0.9c-0.2-0.4-0.3-0.8-0.3-1.3c0-0.2,0-0.5,0.1-0.7      c0.1-0.6,0.3-1.2,0.6-1.7c0.3-0.5,0.7-0.9,1.2-1.2s1-0.4,1.5-0.4c0.4,0,0.8,0.1,1.2,0.3s0.6,0.5,0.8,0.9      c0.2,0.4,0.3,0.8,0.3,1.3c0,0.2,0,0.5-0.1,0.7c-0.1,0.6-0.3,1.2-0.6,1.7c-0.3,0.5-0.7,0.9-1.2,1.2c-0.5,0.3-1,0.4-1.6,0.4      C364.9,337.1,364.5,336.9,364.2,336.7z M366.7,336.1c0.4-0.2,0.7-0.5,0.9-0.9s0.4-0.8,0.5-1.4c0-0.2,0.1-0.4,0.1-0.7      c0-0.6-0.2-1.1-0.5-1.4s-0.8-0.5-1.3-0.5c-0.4,0-0.9,0.1-1.2,0.3c-0.4,0.2-0.7,0.5-0.9,0.9c-0.2,0.4-0.4,0.8-0.5,1.3      c0,0.2-0.1,0.5-0.1,0.7c0,0.6,0.2,1.1,0.5,1.4c0.3,0.4,0.7,0.5,1.3,0.5C365.9,336.4,366.3,336.3,366.7,336.1z M365.1,331.8h1.6      c0.3,0,0.5,0.1,0.7,0.2c0.2,0.2,0.2,0.4,0.2,0.7c0,0.1,0,0.2,0,0.3c-0.1,0.3-0.2,0.6-0.3,0.8s-0.4,0.3-0.6,0.4      c0.1,0.1,0.1,0.1,0.1,0.2s0.1,0.2,0.1,0.3l0.2,1.2h-0.6l-0.2-1.2c0-0.1-0.1-0.2-0.1-0.2c-0.1,0-0.2-0.1-0.3-0.1h-0.5l-0.3,1.5      h-0.6L365.1,331.8z M365.9,333.8c0.3,0,0.5,0,0.7-0.1s0.3-0.3,0.3-0.6c0-0.1,0-0.2,0-0.3c0-0.2,0-0.3-0.1-0.4s-0.2-0.1-0.4-0.1      h-0.9l-0.3,1.5H365.9L365.9,333.8z"/>
			</g>
			<g>
				<path class="st3" d="M46.2,301.8h6.6l3.4,18l8.5-18h7l-5.1,35.5h-7l2.5-17.8l-5.5,11.7h-3.8l-2.2-11.7l-2.5,17.8h-7L46.2,301.8z      "/>
				<path class="st3" d="M83.9,301.8h7.4l4.1,35.5h-7.3l-0.9-7.6H80l-3.1,7.6h-7.3L83.9,301.8z M87.3,322.3l-1.2-10.4L82,322.3H87.3      z"/>
				<path class="st3" d="M103.5,301.8H116c2.2,0,4,0.8,5.2,2.5s1.8,4,1.8,6.8c0,1-0.1,2.1-0.2,3.3c-0.3,2.4-1.1,4.4-2.1,6.3      c-1.1,1.8-2.3,3.2-3.9,4.2c0.2,0.3,0.4,0.7,0.5,1.1s0.3,1.1,0.4,2l1.5,9.3h-7.3l-1.3-8.5c-0.1-0.7-0.3-1.1-0.5-1.4      s-0.6-0.4-1.1-0.4h-2l-1.5,10.4h-7L103.5,301.8z M111.7,319c1,0,1.9-0.4,2.5-1.2c0.7-0.8,1.1-1.9,1.3-3.4      c0.1-0.9,0.2-1.5,0.2-1.8c0-1-0.2-1.7-0.6-2.2s-1-0.7-1.9-0.7h-3.9L108,319L111.7,319L111.7,319z"/>
				<path class="st3" d="M126.3,334.4c-2-2.3-2.9-5.7-2.9-10c0-1.4,0.1-2.9,0.3-4.5c1.8-12.4,7.2-18.6,16.3-18.6      c2.8,0,5.2,0.5,7.2,1.5l-1.3,8.9c-1.8-1.1-4-1.6-6.7-1.6c-2.2,0-4,0.8-5.5,2.4c-1.4,1.6-2.4,4.1-2.9,7.4      c-0.2,1.4-0.3,2.7-0.3,3.8c0,1.9,0.4,3.3,1.2,4.1c0.8,0.8,2,1.3,3.8,1.3c1.2,0,2.4-0.2,3.5-0.7l0.7-5.2H135l0.9-6.4h10.6      l-2.6,17.9c-1.2,1-2.6,1.7-4.2,2.3s-3.5,0.9-5.5,0.9C130.9,337.9,128.2,336.7,126.3,334.4z"/>
				<path class="st3" d="M160.1,301.8h7.4l4.1,35.5h-7.3l-0.9-7.6h-7.3l-3.1,7.6h-7.3L160.1,301.8z M163.6,322.3l-1.2-10.4      l-4.2,10.4H163.6z"/>
				<path class="st3" d="M179.8,301.8h12.5c2.2,0,4,0.8,5.2,2.5s1.8,4,1.8,6.8c0,1-0.1,2.1-0.2,3.3c-0.3,2.4-1.1,4.4-2.1,6.3      c-1.1,1.8-2.3,3.2-3.9,4.2c0.2,0.3,0.4,0.7,0.5,1.1s0.3,1.1,0.4,2l1.5,9.3h-7.3l-1.3-8.5c-0.1-0.7-0.3-1.1-0.5-1.4      s-0.6-0.4-1.1-0.4h-2l-1.5,10.4h-7L179.8,301.8z M188,319c1,0,1.9-0.4,2.5-1.2c0.7-0.8,1.1-1.9,1.3-3.4c0.1-0.9,0.2-1.5,0.2-1.8      c0-1-0.2-1.7-0.6-2.2c-0.4-0.5-1-0.7-1.9-0.7h-3.9l-1.3,9.3L188,319L188,319z"/>
				<path class="st3" d="M203.8,301.8h7l-5.1,35.5h-7L203.8,301.8z"/>
				<path class="st3" d="M218.8,309.5H212l1.1-7.7h20.5l-1.1,7.7h-6.7l-4,27.8h-7L218.8,309.5z"/>
				<path class="st3" d="M239.6,301.8h7.4l4.1,35.5h-7.3l-0.9-7.6h-7.3l-3.1,7.6h-7.3L239.6,301.8z M243.1,322.3l-1.2-10.4      l-4.2,10.4H243.1z"/>
				<path class="st3" d="M254.2,301.8h7.1l2.2,23.5l8.9-23.5h7.6l-14.3,35.5h-7.4L254.2,301.8z"/>
				<path class="st3" d="M306.9,301.8h7l-3.9,27.6h10.8l-1.1,7.9h-17.8L306.9,301.8z"/>
				<path class="st3" d="M327,301.8h7l-3.9,27.6h10.8l-1.1,7.9H322L327,301.8z"/>
				<path class="st3" d="M347.1,301.8h18.2l-1.1,7.9H353l-0.9,5.8h9.8l-1.2,8.1h-9.8l-0.8,5.8h11.2l-1.1,7.9H342L347.1,301.8z"/>
			</g>
		</g>
		<path class="st3" d="M268.1,279.5c1.2-0.7,2.4-1.5,4.1-2.2c3.8-1.4,8.6-1.8,12.1-0.5c0.1,0,0.1-0.1,0-0.3    c-0.5-2.9,1.2-5.8,2.9-8.1c2.7-2.5,6.3-4.8,11.1-6.3c0.5,0,1-0.1,1.2-0.1c0,0.1,0,0.2,0,0.3l-1.2,0.4c-1.5,1.1-2.6,2.3-3.5,3.5    c-0.6,0-1,0-1.1-0.5c0.1,0.6,0.2,1.2,0.3,1.8c-0.7,1.2-1.2,2.6-1.8,4c-1.4-0.3-2.7-0.6-4.1-0.5c1.3,0,2.3,0.9,3.7,1.3    c0,0.1,0,0.1-0.1,0.2l-0.5,2.2c0.6-0.4,1-0.7,1.3-1.2c2.7-2,7.6-3.7,11.7-3.1c4.6,0.7,8.9,2.3,11.5,5.2c0.4,0.4,0.8,0.9,1.2,1.2    c-0.1,0.2-0.2,0.3-0.5,0.3c-1.2-1-2.9-2.1-4.6-2.5c-0.8-0.2-1.7-0.3-2.5-0.3c0.2-1-1.7-0.9-2.1-1.8c0.2,0.8,0.6,1.3,1.2,1.9    c-1.7,0.1-3.4,0.5-4.9,1.1c-0.5-1.2-2.3-2-3.1-2.9c0.2,1.2,1.1,2.3,2,3.4c0,0-0.1,0-0.1,0.1c0,0.2-2.1,0.9-2.1,0.9    c3.4,0.4,6.1,1.1,8.8,2.7c3.9,2.2,6.3,5,7.8,8.6c0.9,1.7,0.9,3.5,1.5,5.2c0,0.1-0.2,0.2-0.2,0.3c-0.2,0.1-0.6,0-0.8-0.1    c-0.1-0.4-0.4-0.7-0.7-1.1c-0.8-1.2-1.7-2.2-2.6-3.2c-0.1-0.7-0.2-1.5-0.3-2.2c-0.1,0.4-0.4,0.8-0.6,1.3c-1.4-1.3-5.6-4.1-5.7-4.1    c-0.2-1.1-0.3-1.7-0.4-2.9c-0.3,0.7-0.7,1.5-0.9,2.3c-2-0.9-4.1-1.6-6.8-1.9c-0.3,0.1-1.2-0.2-1.9,0.1c0.3,0.3,0.8,0.3,1,0.6    c4,1.9,6.6,4.9,7.2,8.6c0.2,4-1.1,8.2-2.9,11.6c-0.1,0-0.2,0.1-0.2,0.1l0,0c-0.1-1.5,0.4-3.1,0.2-4.7c0-0.1,0-0.4-0.1-0.8    c0,0-0.1,0-0.1,0.1c0-0.1,0-0.2-0.1-0.3c0,0,0.1-0.1,0.1-0.2c-0.1-0.5-0.3-1.2-0.7-1.7c0.5-1.7,1.1-3,1.7-4.2c-1.3,1-1.8,2-2.2,3    c-0.6-1.1-1.3-2.1-2.2-3l0,0l0,0c0.4-0.5,1.4-0.9,0.5-1.2c0.1-0.5,0.2-1,0.1-1.5c-0.5,0.5-1,1.4-1.2,2.2c-0.7-0.7-1.5-1.4-2.4-1.9    c-0.6,0.4-1.3,0.8-2.1,1.1v0.1h-0.1c0,0,0,0.1,0.1,0.1c0.1,0.2,0.1,0.3,0.2,0.5c0.1,0.1,0.1,0.3,0.2,0.4c0.5,1.1,1,2.1,1.2,2.7    c0.2,0.7,0.1,2.2,0.4,3.9c0.2,1.1,0.7,2.5,0.8,3.8c0.1,1.2,0,2.5,0,3.8c0,1.1,0.2,2.4,0.2,3.6c0,0.2,0,0.4,0,0.6    c0,0.3,0,0.6-0.1,0.9c0,0.3-0.1,0.6-0.1,0.9c-0.1,0.6-0.4,0.9-0.4,1.5c-0.1,0.6-0.1,1.2-0.2,1.8c0,0.1,0,0.2,0,0.2v0.2    c0,0.6,0.1,1.1,0.1,1.4c0,0.4-0.2,1-0.3,1.9c-0.1,0.6,0,1.3-0.1,1.9s-0.2,1.2-0.4,1.8c-0.1,0.6-0.2,1.3-0.3,1.9    c-0.1,0.6-0.5,1.1-0.6,1.7c-0.2,0.6-0.3,1.3-0.5,1.8c-0.3,0.7-0.4,1.6-0.6,1.9c-0.2,0.4-0.5,0.4-0.8,1c0,0.1-0.1,0.2-0.1,0.3    c0.2,0,0.3,0.1,0.5,0.1c-1.4,1.7-2,3.8-2,6c-0.1,0.3-0.2,0.6-0.2,0.9c-2.8,0-5.6,0-8.3,0c0.1-0.3,0.1-0.7,0.1-1.1    c0-0.1,0-0.1,0-0.1c0-0.2,0.1-0.4,0.1-0.6c0.2-0.8,0.5-1.6,0.8-2.4c0.2-0.7,0.4-1.4,0.6-2.1c0.2-0.4,0.4-0.7,0.5-1.1    c0.2-0.1,0.5-0.2,0.7-0.2l0,0c0.2-0.3,0.3-0.6,0.4-0.9s0.2-0.6,0.3-0.9c0.3-0.6,0.7-0.8,1-1.2c0.3-0.5,0.6-1.2,0.8-1.6    c0.3-0.5,0.6-0.9,0.9-1.3c0.2-0.3,0.5-0.6,0.8-1.2c0.2-0.5,0.3-1.1,0.5-1.6c0.1-0.3,0.2-0.5,0.3-0.8c0.1-0.3,0.2-0.5,0.2-0.8    c0.1-0.5,0.1-1.1,0.2-1.5c0.1-0.6,0.4-1.2,0.5-1.6c0.1-0.3,0.1-1.1,0.3-1.8c0-0.1,0.1-0.3,0.1-0.4s0.1-0.2,0.1-0.3v-0.1    c0-0.1,0.1-0.2,0.1-0.3v-0.1c0-0.1,0.1-0.3,0.1-0.4c0.1-0.5,0.4-0.7,0.5-1.3c0.1-0.6,0.1-1.4,0.2-1.9c0.1-0.6,0.2-1.1,0.3-1.6    c0.1-0.8,0.1-1.3,0.2-1.7c0-0.6,0.1-0.7,0-1.3c-0.1-0.3,0-1.1,0-1.8c0-0.5-0.1-0.9-0.2-1.6c0-0.5,0-1-0.1-1.7    c0-0.5-0.1-1.1-0.2-1.7c0-0.6,0-1.1-0.1-1.5c-0.1-0.6-0.2-1.2-0.3-1.7c0-0.6,0.2-0.9,0.1-1.3s-0.2-0.8-0.3-1.3    c-0.1-0.3-0.1-0.5-0.2-0.8c-0.1-0.2-0.1-0.5-0.2-0.7c0-0.1-0.1-0.2-0.1-0.2c-0.1-0.2-0.1-0.3-0.2-0.5l0,0c-0.5,0-1,0-1.4-0.1    c-0.1-0.7-0.2-1.5-0.3-2.1c0.1-0.3,0.1-0.6-0.2-0.9c-0.5,1-0.9,1.7-1.1,2.5c-0.5-0.2-1.1-0.4-1.2-0.4c-0.4-0.2-0.8-0.5-1.1-0.9    c-0.2,0.3-0.4,0.6-0.6,0.9c-0.4,0.5-0.6,0.8-0.7,1c-0.3-0.2-0.6-0.5-0.9-0.8c0.1,0.6,0.2,1.2,0.3,1.9c-0.5,1.5-1.1,3.1-1.4,4.8    c-0.6-1-1.5-1.9-1.8-3.2c0.3,1.6,0.5,3.2,1.7,4.3c-0.1,1.5,0.2,3,1.3,4.2c0.1,0.3,0.5,0.5,0.4,0.6c-0.2,0.1-0.3,0.1-0.4,0    c-1.2-1-2.3-2.1-3.2-3.4c0,0.1,0,0.1,0,0.1c-0.9-1.4-2.1-3.4-2.4-5.1l0,0c-0.1-0.4-0.2-0.8-0.3-1.3l0,0v-0.2c-0.4-3.2,1-6.8,3.9-9    l-0.1-0.1c-1.3-0.2-2.5-0.3-3.9-0.3c0.4-0.9,0.2-1.8,0.1-2.6c-0.4,0.9-1.2,1.9-1.4,2.7c-0.9,0.2-1.9,0.2-3.3,0.6    c-0.8,0.4-1.5,0.8-2.2,1.1c0-0.3,0.3-0.6-0.2-0.9c0.1,0.5-0.7,1-0.8,1.5c-0.2,0.1-0.4,0.2-0.6,0.3c-0.5,0.5-1,0.9-1.4,1.4    c-0.4-0.7-1.1-1.4-1.3-2c-0.2,1.1-0.7,2.4,0.1,3.4c-0.6,0.8-1,1.7-1.3,2.6c0,0.2-0.2,0.2-0.3,0.2c-0.3,0.2,0.1,0.6-0.5,0.9    c0-0.1-0.2-0.1-0.3-0.2c0,0,0-0.1,0-0.2c0.7-1-0.6-1.9-0.8-3C263.6,285.2,265.2,282.1,268.1,279.5z"/>
	</g>
</g>
<g>
	<path class="st1" d="M376.3,191.1l6.4-30.3h14c3.7,0,6.7,0.9,9,2.8c2.3,1.9,3.4,4.7,3.4,8.4c0,1.3-0.1,2.6-0.4,4.1   c-1,5.3-3,9.1-5.9,11.4c-3,2.3-6.9,3.5-11.9,3.5h-14.6V191.1z M388,183.4h2.6c1.4,0,2.7-0.2,3.6-0.6c1-0.4,1.8-1.1,2.4-2.1   s1.2-2.6,1.6-4.6c0.3-1.4,0.4-2.5,0.4-3.4c0-1.6-0.4-2.6-1.2-3.1c-0.8-0.5-2.1-0.8-3.7-0.8h-2.6L388,183.4z"/>
	<path class="st1" d="M404.8,191.1l18-30.3h10.6l5.3,30.3h-10.1l-1.1-6h-8.2l-3.6,6H404.8z M421.9,178.1h5.7l-1.3-7.3L421.9,178.1z"/>
	<path class="st1" d="M444.6,191.1l2.3-11l-6.8-19.2h10.2l3.2,10.5l7.7-10.5H472l-15,19.2l-2.3,11H444.6z"/>
	<path class="st1" d="M473.5,191.1l4.8-22.9h-8.1l1.6-7.4h26.3l-1.6,7.4h-8.1l-4.8,22.9H473.5z"/>
	<path class="st1" d="M507.9,191.6c-2.6,0-4.9-0.4-6.8-1.2c-2-0.8-3.5-2-4.6-3.6s-1.6-3.7-1.6-6.2c0-0.7,0-1.5,0.1-2.2   c0.1-0.8,0.2-1.6,0.4-2.4c0.8-3.8,2-6.8,3.6-9.1s3.7-3.9,6.2-5c2.6-1,5.6-1.6,9.3-1.6c4,0,7.2,0.9,9.5,2.7s3.5,4.6,3.5,8.4   c0,0.7,0,1.4-0.1,2.2s-0.2,1.6-0.4,2.4c-0.8,3.7-2,6.7-3.6,9s-3.7,3.9-6.2,5C514.6,191.1,511.5,191.6,507.9,191.6z M509.7,183.1   c1.9,0,3.5-0.5,4.6-1.6s1.9-2.9,2.4-5.4c0.3-1.3,0.4-2.4,0.4-3.3c0-1.4-0.3-2.3-1-2.9c-0.7-0.6-1.8-0.8-3.4-0.8   c-2,0-3.5,0.5-4.6,1.6c-1.1,1-1.9,2.9-2.4,5.5c-0.3,1.3-0.4,2.3-0.4,3.2c0,1.3,0.4,2.3,1.1,2.9C507,182.8,508.1,183.1,509.7,183.1z   "/>
	<path class="st1" d="M526.7,191.1l6.4-30.3h8.5l7,14l3-14h10.1l-6.4,30.3h-8.6l-7-13.9l-2.9,13.9H526.7z"/>
	<path class="st1" d="M558.1,191.1l18-30.3h10.6l5.3,30.3h-10.1l-1.1-6h-8.2l-3.6,6H558.1z M575.2,178.1h5.7l-1.3-7.3L575.2,178.1z"/>
	<path class="st1" d="M366.7,232.9l6.4-30.3h17.3c2.6,0,4.5,0.6,5.9,1.8s2.1,2.8,2.1,4.8c0,0.3,0,0.6,0,0.9c0,0.3-0.1,0.6-0.1,0.9   c-0.3,1.5-0.9,2.8-1.6,3.9c-0.8,1.1-1.7,1.9-2.7,2.5c0.9,0.4,1.6,1,2.1,1.7s0.8,1.6,0.8,2.7c0,0.3,0,0.6,0,0.9c0,0.3-0.1,0.6-0.1,1   c-0.6,2.9-1.9,5.1-3.8,6.7c-1.9,1.6-4.8,2.4-8.5,2.4h-17.8V232.9z M377.8,226h5.2c1.1,0,1.8-0.2,2.3-0.6c0.5-0.4,0.9-1.1,1.1-2   c0-0.1,0.1-0.2,0.1-0.4c0-0.1,0-0.2,0-0.3c0-1.2-0.8-1.8-2.5-1.8h-5.1L377.8,226z M380.2,214.5h5c1,0,1.8-0.2,2.3-0.6   c0.5-0.4,0.8-1,1-1.8c0-0.1,0.1-0.2,0.1-0.4c0-0.1,0-0.2,0-0.4c0-1.2-0.8-1.7-2.4-1.7h-4.8L380.2,214.5z"/>
	<path class="st1" d="M397.5,232.9l6.4-30.3h23.5l-1.6,7.5h-13.4l-0.8,3.9h11.7l-1.6,7.7H410l-0.8,3.8h13.4L421,233L397.5,232.9   L397.5,232.9z"/>
	<path class="st1" d="M422.7,232.9l18-30.3h10.6l5.3,30.3h-10.1l-1.1-6h-8.2l-3.6,6H422.7z M439.8,219.8h5.7l-1.3-7.3L439.8,219.8z"/>
	<path class="st1" d="M473.1,233.4c-2.9,0-5.5-0.4-7.6-1.3c-2.2-0.9-3.9-2.2-5.1-3.9s-1.8-3.9-1.8-6.4c0-1.2,0.1-2.5,0.4-3.8   c1.1-5.1,3.3-9,6.5-11.7c3.3-2.7,8-4,14.2-4c1.8,0,3.5,0.1,5,0.4c1.5,0.3,2.8,0.7,4.1,1.2l-1.9,8.8c-1.3-0.7-2.5-1.1-3.7-1.4   c-1.2-0.3-2.7-0.4-4.5-0.4c-2.5,0-4.6,0.5-6.2,1.6s-2.6,2.9-3.1,5.5c-0.1,0.5-0.2,1-0.2,1.4c-0.1,0.4-0.1,0.8-0.1,1.2   c0,1.6,0.5,2.7,1.6,3.4c1,0.6,2.8,1,5.1,1c1.5,0,3-0.1,4.5-0.4c1.5-0.3,3-0.8,4.5-1.4l-1.9,8.8c-1.5,0.5-3,0.9-4.5,1.2   C476.8,233.2,475,233.4,473.1,233.4z"/>
	<path class="st1" d="M485.5,232.9l6.4-30.3H502l-2.2,10.6h9l2.2-10.6h10.1l-6.4,30.3h-10.1l2.2-10.6h-9l-2.2,10.6H485.5z"/>
</g>
</svg>