<svg xmlns="http://www.w3.org/2000/svg" xmlns:xlink="http://www.w3.org/1999/xlink" version="1.1" xml:space="preserve" viewBox="0 0 703.65 243.48">
<desc>Created with Fabric.js 3.5.0</desc>
<defs>
</defs>
<rect x="0" y="0" width="100%" height="100%" fill="rgba(255,255,255,0)"/>
<g transform="matrix(1 0 0 1 363.1182 126.2694)" id="714726">
<g style="">
		<g transform="matrix(1.2276 0 0 1.2276 -26.0308 -35.5122)" id="Layer_1">
<path style="stroke: none; stroke-width: 1; stroke-dasharray: none; stroke-linecap: butt; stroke-dashoffset: 0; stroke-linejoin: miter; stroke-miterlimit: 4; is-custom-font: none; font-file-url: none; fill: rgb(249,98,57); fill-rule: nonzero; opacity: 1;" vector-effect="non-scaling-stroke" transform=" translate(-296.8776, -213.4894)" d="M 265.6 150.3 h 39.3 h 8.6 c 23.7 -0.7 47 16 41 50.8 c -5.3 30.8 -31.7 45.5 -56.5 45.5 h -19 l -3.2 15.2 c -2.6 8.8 -8.9 14.9 -18.1 14.9 h -19.4 L 265.6 150.3 z" stroke-linecap="round"/>
</g>
		<g transform="matrix(1.2276 0 0 1.2276 -136.0438 -53.852)" id="Layer_1">
<path style="stroke: none; stroke-width: 1; stroke-dasharray: none; stroke-linecap: butt; stroke-dashoffset: 0; stroke-linejoin: miter; stroke-miterlimit: 4; is-custom-font: none; font-file-url: none; fill: rgb(16,32,54); fill-rule: nonzero; opacity: 1;" vector-effect="non-scaling-stroke" transform=" translate(-207.2612, -198.55)" d="M 227.4 150.3 h -33.9 l -16.6 77 c -2.2 10 5.5 19.5 15.7 19.5 h 38.9 l 6.5 -33.3 h -23.7 L 227.4 150.3 z" stroke-linecap="round"/>
</g>
		<g transform="matrix(1.2276 0 0 1.2276 -244.1483 -53.852)" id="Layer_1">
<path style="stroke: none; stroke-width: 1; stroke-dasharray: none; stroke-linecap: butt; stroke-dashoffset: 0; stroke-linejoin: miter; stroke-miterlimit: 4; is-custom-font: none; font-file-url: none; fill: rgb(16,32,54); fill-rule: nonzero; opacity: 1;" vector-effect="non-scaling-stroke" transform=" translate(-119.2, -198.55)" d="M 165 150.3 h -12.7 h -2.7 v 0.2 c -5.6 0.9 -10.5 4.5 -13 9.7 l -16.3 34.2 l 1 -44.1 h -12 H 97.5 h -10 c -7.3 0 -13.6 5.1 -15.1 12.3 l -17.8 84.2 h 33.7 l 8.7 -33.3 l -1.7 33.3 H 121 l 14.7 -33.3 l -6.4 33.3 h 34.2 l 20.3 -96.4 L 165 150.3 L 165 150.3 z" stroke-linecap="round"/>
</g>
		<g transform="matrix(1.2276 0 0 1.2276 -16.0596 -56.0002)" id="Layer_1">
<path style="stroke: none; stroke-width: 1; stroke-dasharray: none; stroke-linecap: butt; stroke-dashoffset: 0; stroke-linejoin: miter; stroke-miterlimit: 4; is-custom-font: none; font-file-url: none; fill: rgb(255,255,255); fill-rule: nonzero; opacity: 1;" vector-effect="non-scaling-stroke" transform=" translate(-305, -196.8)" d="M 305 173.1 c -13.1 0 -23.7 10.6 -23.7 23.7 s 10.6 23.7 23.7 23.7 s 23.7 -10.6 23.7 -23.7 C 328.7 183.8 318.1 173.1 305 173.1 z M 320.5 185.9 c 1.6 -0.5 3.4 1 4 3.3 s -0.1 4.5 -1.7 4.9 c -1.6 0.5 -3.4 -1 -4 -3.3 C 318.2 188.5 318.9 186.3 320.5 185.9 z M 305.8 175.7 c 2.3 0.1 4.2 1.4 4.1 2.9 s -2 2.6 -4.4 2.5 c -2.3 -0.1 -4.2 -1.4 -4.1 -2.9 S 303.5 175.6 305.8 175.7 z M 285.4 187.7 c 0.7 -2.3 2.5 -3.7 4 -3.3 c 1.6 0.5 2.3 2.7 1.7 4.9 c -0.7 2.3 -2.5 3.7 -4 3.3 C 285.5 192.2 284.7 190 285.4 187.7 z M 291.5 211 c -1.1 1 -3.3 0.3 -4.8 -1.5 s -1.8 -4 -0.7 -5 c 1.1 -1 3.3 -0.3 4.8 1.5 C 292.4 207.8 292.7 210 291.5 211 z M 306.4 218 c -2.3 0.6 -4.4 0 -4.8 -1.4 s 1.1 -3.1 3.4 -3.7 c 2.3 -0.6 4.4 0 4.8 1.4 C 310.2 215.6 308.7 217.3 306.4 218 z M 306.2 202.3 c -2.8 0 -5.1 -2.3 -5.1 -5.1 s 2.3 -5.1 5.1 -5.1 c 2.8 0 5.1 2.3 5.1 5.1 C 311.3 200 309 202.3 306.2 202.3 z M 322.8 208 c -1.4 1.9 -3.6 2.6 -4.9 1.6 s -1.2 -3.3 0.2 -5.2 c 1.4 -1.9 3.6 -2.6 4.9 -1.6 S 324.3 206.1 322.8 208 z" stroke-linecap="round"/>
</g>
		<g transform="matrix(1.2276 0 0 1.2276 -220.4555 37.7887)" id="Layer_1">
<path style="stroke: none; stroke-width: 1; stroke-dasharray: none; stroke-linecap: butt; stroke-dashoffset: 0; stroke-linejoin: miter; stroke-miterlimit: 4; is-custom-font: none; font-file-url: none; fill: rgb(16,32,54); fill-rule: nonzero; opacity: 1;" vector-effect="non-scaling-stroke" transform=" translate(-138.5, -273.2)" d="M 137.2 283.4 c -0.4 -0.2 -0.8 -0.6 -1.2 -1.1 l -0.3 1.1 h -3.4 l 3 -20.8 h 3.9 l -1 6.7 c 0.4 -0.3 0.8 -0.5 1.3 -0.6 s 0.9 -0.2 1.4 -0.2 c 1.2 0 2.2 0.4 2.8 1.3 s 1 2.1 1 3.9 c 0 0.7 -0.1 1.5 -0.2 2.4 c -0.7 5.2 -2.6 7.7 -5.7 7.7 C 138.2 283.8 137.6 283.6 137.2 283.4 z M 139.7 278.8 c 0.3 -0.5 0.6 -1.4 0.8 -2.7 c 0.1 -0.6 0.1 -1.1 0.1 -1.5 c 0 -0.7 -0.1 -1.1 -0.3 -1.4 s -0.6 -0.5 -1 -0.5 c -0.6 0 -1.2 0.3 -1.6 0.8 l -0.8 5.2 c 0.3 0.6 0.8 0.9 1.4 0.9 C 138.9 279.6 139.4 279.3 139.7 278.8 z" stroke-linecap="round"/>
</g>
		<g transform="matrix(1.2276 0 0 1.2276 -205.1718 44.8474)" id="Layer_1">
<path style="stroke: none; stroke-width: 1; stroke-dasharray: none; stroke-linecap: butt; stroke-dashoffset: 0; stroke-linejoin: miter; stroke-miterlimit: 4; is-custom-font: none; font-file-url: none; fill: rgb(16,32,54); fill-rule: nonzero; opacity: 1;" vector-effect="non-scaling-stroke" transform=" translate(-150.95, -278.95)" d="M 146.1 288.8 c -0.6 -0.1 -1.1 -0.1 -1.3 -0.2 l 0.6 -4.1 c 0.3 0.1 0.6 0.2 1 0.3 c 0.4 0.1 0.8 0.1 1.1 0.1 c 1.2 0 2.1 -0.1 2.7 -0.4 c 0.6 -0.3 1 -0.8 1.1 -1.4 l 0.1 -0.6 c -1 0.9 -2.2 1.4 -3.5 1.4 c -0.9 0 -1.6 -0.4 -2.2 -1.2 c -0.5 -0.8 -0.8 -1.8 -0.8 -3.1 c 0 -0.4 0 -0.9 0.1 -1.4 l 1.3 -9.2 h 3.9 l -1.3 8.8 c 0 0.3 -0.1 0.6 -0.1 0.8 c 0 0.4 0.1 0.7 0.2 0.8 c 0.2 0.2 0.5 0.2 0.9 0.2 c 0.3 0 0.6 -0.1 1 -0.3 c 0.3 -0.2 0.6 -0.5 0.9 -0.8 l 1.4 -9.6 h 3.9 l -1.8 12.7 c -0.3 2.4 -1.1 4.2 -2.3 5.5 s -3.1 1.9 -5.6 1.9 C 147.2 288.9 146.7 288.9 146.1 288.8 z" stroke-linecap="round"/>
</g>
		<g transform="matrix(1.2276 0 0 1.2276 58.763 112.1365)" id="Layer_1">
<path style="stroke: none; stroke-width: 1; stroke-dasharray: none; stroke-linecap: butt; stroke-dashoffset: 0; stroke-linejoin: miter; stroke-miterlimit: 4; is-custom-font: none; font-file-url: none; fill: rgb(0,153,168); fill-rule: nonzero; opacity: 1;" vector-effect="non-scaling-stroke" transform=" translate(-365.95, -333.7633)" d="M 364.2 336.7 c -0.3 -0.2 -0.6 -0.5 -0.8 -0.9 c -0.2 -0.4 -0.3 -0.8 -0.3 -1.3 c 0 -0.2 0 -0.5 0.1 -0.7 c 0.1 -0.6 0.3 -1.2 0.6 -1.7 c 0.3 -0.5 0.7 -0.9 1.2 -1.2 s 1 -0.4 1.5 -0.4 c 0.4 0 0.8 0.1 1.2 0.3 s 0.6 0.5 0.8 0.9 c 0.2 0.4 0.3 0.8 0.3 1.3 c 0 0.2 0 0.5 -0.1 0.7 c -0.1 0.6 -0.3 1.2 -0.6 1.7 c -0.3 0.5 -0.7 0.9 -1.2 1.2 c -0.5 0.3 -1 0.4 -1.6 0.4 C 364.9 337.1 364.5 336.9 364.2 336.7 z M 366.7 336.1 c 0.4 -0.2 0.7 -0.5 0.9 -0.9 s 0.4 -0.8 0.5 -1.4 c 0 -0.2 0.1 -0.4 0.1 -0.7 c 0 -0.6 -0.2 -1.1 -0.5 -1.4 s -0.8 -0.5 -1.3 -0.5 c -0.4 0 -0.9 0.1 -1.2 0.3 c -0.4 0.2 -0.7 0.5 -0.9 0.9 c -0.2 0.4 -0.4 0.8 -0.5 1.3 c 0 0.2 -0.1 0.5 -0.1 0.7 c 0 0.6 0.2 1.1 0.5 1.4 c 0.3 0.4 0.7 0.5 1.3 0.5 C 365.9 336.4 366.3 336.3 366.7 336.1 z M 365.1 331.8 h 1.6 c 0.3 0 0.5 0.1 0.7 0.2 c 0.2 0.2 0.2 0.4 0.2 0.7 c 0 0.1 0 0.2 0 0.3 c -0.1 0.3 -0.2 0.6 -0.3 0.8 s -0.4 0.3 -0.6 0.4 c 0.1 0.1 0.1 0.1 0.1 0.2 s 0.1 0.2 0.1 0.3 l 0.2 1.2 h -0.6 l -0.2 -1.2 c 0 -0.1 -0.1 -0.2 -0.1 -0.2 c -0.1 0 -0.2 -0.1 -0.3 -0.1 h -0.5 l -0.3 1.5 h -0.6 L 365.1 331.8 z M 365.9 333.8 c 0.3 0 0.5 0 0.7 -0.1 s 0.3 -0.3 0.3 -0.6 c 0 -0.1 0 -0.2 0 -0.3 c 0 -0.2 0 -0.3 -0.1 -0.4 s -0.2 -0.1 -0.4 -0.1 h -0.9 l -0.3 1.5 H 365.9 L 365.9 333.8 z" stroke-linecap="round"/>
</g>
		<g transform="matrix(1.2276 0 0 1.2276 -321.2417 94.6881)" id="Layer_1">
<path style="stroke: none; stroke-width: 1; stroke-dasharray: none; stroke-linecap: butt; stroke-dashoffset: 0; stroke-linejoin: miter; stroke-miterlimit: 4; is-custom-font: none; font-file-url: none; fill: rgb(0,153,168); fill-rule: nonzero; opacity: 1;" vector-effect="non-scaling-stroke" transform=" translate(-56.4, -319.55)" d="M 46.2 301.8 h 6.6 l 3.4 18 l 8.5 -18 h 7 l -5.1 35.5 h -7 l 2.5 -17.8 l -5.5 11.7 h -3.8 l -2.2 -11.7 l -2.5 17.8 h -7 L 46.2 301.8 z" stroke-linecap="round"/>
</g>
		<g transform="matrix(1.2276 0 0 1.2276 -289.2013 94.6881)" id="Layer_1">
<path style="stroke: none; stroke-width: 1; stroke-dasharray: none; stroke-linecap: butt; stroke-dashoffset: 0; stroke-linejoin: miter; stroke-miterlimit: 4; is-custom-font: none; font-file-url: none; fill: rgb(0,153,168); fill-rule: nonzero; opacity: 1;" vector-effect="non-scaling-stroke" transform=" translate(-82.5, -319.55)" d="M 83.9 301.8 h 7.4 l 4.1 35.5 h -7.3 l -0.9 -7.6 H 80 l -3.1 7.6 h -7.3 L 83.9 301.8 z M 87.3 322.3 l -1.2 -10.4 L 82 322.3 H 87.3 z" stroke-linecap="round"/>
</g>
		<g transform="matrix(1.2276 0 0 1.2276 -254.5215 94.7495)" id="Layer_1">
<path style="stroke: none; stroke-width: 1; stroke-dasharray: none; stroke-linecap: butt; stroke-dashoffset: 0; stroke-linejoin: miter; stroke-miterlimit: 4; is-custom-font: none; font-file-url: none; fill: rgb(0,153,168); fill-rule: nonzero; opacity: 1;" vector-effect="non-scaling-stroke" transform=" translate(-110.75, -319.6)" d="M 103.5 301.8 H 116 c 2.2 0 4 0.8 5.2 2.5 s 1.8 4 1.8 6.8 c 0 1 -0.1 2.1 -0.2 3.3 c -0.3 2.4 -1.1 4.4 -2.1 6.3 c -1.1 1.8 -2.3 3.2 -3.9 4.2 c 0.2 0.3 0.4 0.7 0.5 1.1 s 0.3 1.1 0.4 2 l 1.5 9.3 h -7.3 l -1.3 -8.5 c -0.1 -0.7 -0.3 -1.1 -0.5 -1.4 s -0.6 -0.4 -1.1 -0.4 h -2 l -1.5 10.4 h -7 L 103.5 301.8 z M 111.7 319 c 1 0 1.9 -0.4 2.5 -1.2 c 0.7 -0.8 1.1 -1.9 1.3 -3.4 c 0.1 -0.9 0.2 -1.5 0.2 -1.8 c 0 -1 -0.2 -1.7 -0.6 -2.2 s -1 -0.7 -1.9 -0.7 h -3.9 L 108 319 L 111.7 319 L 111.7 319 z" stroke-linecap="round"/>
</g>
		<g transform="matrix(1.2276 0 0 1.2276 -224.3838 94.7495)" id="Layer_1">
<path style="stroke: none; stroke-width: 1; stroke-dasharray: none; stroke-linecap: butt; stroke-dashoffset: 0; stroke-linejoin: miter; stroke-miterlimit: 4; is-custom-font: none; font-file-url: none; fill: rgb(0,153,168); fill-rule: nonzero; opacity: 1;" vector-effect="non-scaling-stroke" transform=" translate(-135.3, -319.6)" d="M 126.3 334.4 c -2 -2.3 -2.9 -5.7 -2.9 -10 c 0 -1.4 0.1 -2.9 0.3 -4.5 c 1.8 -12.4 7.2 -18.6 16.3 -18.6 c 2.8 0 5.2 0.5 7.2 1.5 l -1.3 8.9 c -1.8 -1.1 -4 -1.6 -6.7 -1.6 c -2.2 0 -4 0.8 -5.5 2.4 c -1.4 1.6 -2.4 4.1 -2.9 7.4 c -0.2 1.4 -0.3 2.7 -0.3 3.8 c 0 1.9 0.4 3.3 1.2 4.1 c 0.8 0.8 2 1.3 3.8 1.3 c 1.2 0 2.4 -0.2 3.5 -0.7 l 0.7 -5.2 H 135 l 0.9 -6.4 h 10.6 l -2.6 17.9 c -1.2 1 -2.6 1.7 -4.2 2.3 s -3.5 0.9 -5.5 0.9 C 130.9 337.9 128.2 336.7 126.3 334.4 z" stroke-linecap="round"/>
</g>
		<g transform="matrix(1.2276 0 0 1.2276 -195.7193 94.6881)" id="Layer_1">
<path style="stroke: none; stroke-width: 1; stroke-dasharray: none; stroke-linecap: butt; stroke-dashoffset: 0; stroke-linejoin: miter; stroke-miterlimit: 4; is-custom-font: none; font-file-url: none; fill: rgb(0,153,168); fill-rule: nonzero; opacity: 1;" vector-effect="non-scaling-stroke" transform=" translate(-158.65, -319.55)" d="M 160.1 301.8 h 7.4 l 4.1 35.5 h -7.3 l -0.9 -7.6 h -7.3 l -3.1 7.6 h -7.3 L 160.1 301.8 z M 163.6 322.3 l -1.2 -10.4 l -4.2 10.4 H 163.6 z" stroke-linecap="round"/>
</g>
		<g transform="matrix(1.2276 0 0 1.2276 -160.8553 94.7495)" id="Layer_1">
<path style="stroke: none; stroke-width: 1; stroke-dasharray: none; stroke-linecap: butt; stroke-dashoffset: 0; stroke-linejoin: miter; stroke-miterlimit: 4; is-custom-font: none; font-file-url: none; fill: rgb(0,153,168); fill-rule: nonzero; opacity: 1;" vector-effect="non-scaling-stroke" transform=" translate(-187.05, -319.6)" d="M 179.8 301.8 h 12.5 c 2.2 0 4 0.8 5.2 2.5 s 1.8 4 1.8 6.8 c 0 1 -0.1 2.1 -0.2 3.3 c -0.3 2.4 -1.1 4.4 -2.1 6.3 c -1.1 1.8 -2.3 3.2 -3.9 4.2 c 0.2 0.3 0.4 0.7 0.5 1.1 s 0.3 1.1 0.4 2 l 1.5 9.3 h -7.3 l -1.3 -8.5 c -0.1 -0.7 -0.3 -1.1 -0.5 -1.4 s -0.6 -0.4 -1.1 -0.4 h -2 l -1.5 10.4 h -7 L 179.8 301.8 z M 188 319 c 1 0 1.9 -0.4 2.5 -1.2 c 0.7 -0.8 1.1 -1.9 1.3 -3.4 c 0.1 -0.9 0.2 -1.5 0.2 -1.8 c 0 -1 -0.2 -1.7 -0.6 -2.2 c -0.4 -0.5 -1 -0.7 -1.9 -0.7 h -3.9 l -1.3 9.3 L 188 319 L 188 319 z" stroke-linecap="round"/>
</g>
		<g transform="matrix(1.2276 0 0 1.2276 -139.1267 94.6881)" id="Layer_1">
<path style="stroke: none; stroke-width: 1; stroke-dasharray: none; stroke-linecap: butt; stroke-dashoffset: 0; stroke-linejoin: miter; stroke-miterlimit: 4; is-custom-font: none; font-file-url: none; fill: rgb(0,153,168); fill-rule: nonzero; opacity: 1;" vector-effect="non-scaling-stroke" transform=" translate(-204.75, -319.55)" d="M 203.8 301.8 h 7 l -5.1 35.5 h -7 L 203.8 301.8 z" stroke-linecap="round"/>
</g>
		<g transform="matrix(1.2276 0 0 1.2276 -116.9685 94.6881)" id="Layer_1">
<path style="stroke: none; stroke-width: 1; stroke-dasharray: none; stroke-linecap: butt; stroke-dashoffset: 0; stroke-linejoin: miter; stroke-miterlimit: 4; is-custom-font: none; font-file-url: none; fill: rgb(0,153,168); fill-rule: nonzero; opacity: 1;" vector-effect="non-scaling-stroke" transform=" translate(-222.8, -319.55)" d="M 218.8 309.5 H 212 l 1.1 -7.7 h 20.5 l -1.1 7.7 h -6.7 l -4 27.8 h -7 L 218.8 309.5 z" stroke-linecap="round"/>
</g>
		<g transform="matrix(1.2276 0 0 1.2276 -98.1248 94.6881)" id="Layer_1">
<path style="stroke: none; stroke-width: 1; stroke-dasharray: none; stroke-linecap: butt; stroke-dashoffset: 0; stroke-linejoin: miter; stroke-miterlimit: 4; is-custom-font: none; font-file-url: none; fill: rgb(0,153,168); fill-rule: nonzero; opacity: 1;" vector-effect="non-scaling-stroke" transform=" translate(-238.15, -319.55)" d="M 239.6 301.8 h 7.4 l 4.1 35.5 h -7.3 l -0.9 -7.6 h -7.3 l -3.1 7.6 h -7.3 L 239.6 301.8 z M 243.1 322.3 l -1.2 -10.4 l -4.2 10.4 H 243.1 z" stroke-linecap="round"/>
</g>
		<g transform="matrix(1.2276 0 0 1.2276 -62.5856 94.6881)" id="Layer_1">
<path style="stroke: none; stroke-width: 1; stroke-dasharray: none; stroke-linecap: butt; stroke-dashoffset: 0; stroke-linejoin: miter; stroke-miterlimit: 4; is-custom-font: none; font-file-url: none; fill: rgb(0,153,168); fill-rule: nonzero; opacity: 1;" vector-effect="non-scaling-stroke" transform=" translate(-267.1, -319.55)" d="M 254.2 301.8 h 7.1 l 2.2 23.5 l 8.9 -23.5 h 7.6 l -14.3 35.5 h -7.4 L 254.2 301.8 z" stroke-linecap="round"/>
</g>
		<g transform="matrix(1.2276 0 0 1.2276 -8.2642 94.6881)" id="Layer_1">
<path style="stroke: none; stroke-width: 1; stroke-dasharray: none; stroke-linecap: butt; stroke-dashoffset: 0; stroke-linejoin: miter; stroke-miterlimit: 4; is-custom-font: none; font-file-url: none; fill: rgb(0,153,168); fill-rule: nonzero; opacity: 1;" vector-effect="non-scaling-stroke" transform=" translate(-311.35, -319.55)" d="M 306.9 301.8 h 7 l -3.9 27.6 h 10.8 l -1.1 7.9 h -17.8 L 306.9 301.8 z" stroke-linecap="round"/>
</g>
		<g transform="matrix(1.2276 0 0 1.2276 16.4106 94.6881)" id="Layer_1">
<path style="stroke: none; stroke-width: 1; stroke-dasharray: none; stroke-linecap: butt; stroke-dashoffset: 0; stroke-linejoin: miter; stroke-miterlimit: 4; is-custom-font: none; font-file-url: none; fill: rgb(0,153,168); fill-rule: nonzero; opacity: 1;" vector-effect="non-scaling-stroke" transform=" translate(-331.45, -319.55)" d="M 327 301.8 h 7 l -3.9 27.6 h 10.8 l -1.1 7.9 H 322 L 327 301.8 z" stroke-linecap="round"/>
</g>
		<g transform="matrix(1.2276 0 0 1.2276 43.6634 94.6881)" id="Layer_1">
<path style="stroke: none; stroke-width: 1; stroke-dasharray: none; stroke-linecap: butt; stroke-dashoffset: 0; stroke-linejoin: miter; stroke-miterlimit: 4; is-custom-font: none; font-file-url: none; fill: rgb(0,153,168); fill-rule: nonzero; opacity: 1;" vector-effect="non-scaling-stroke" transform=" translate(-353.65, -319.55)" d="M 347.1 301.8 h 18.2 l -1.1 7.9 H 353 l -0.9 5.8 h 9.8 l -1.2 8.1 h -9.8 l -0.8 5.8 h 11.2 l -1.1 7.9 H 342 L 347.1 301.8 z" stroke-linecap="round"/>
</g>
		<g transform="matrix(1.2276 0 0 1.2276 -33.1949 70.3201)" id="Layer_1">
<path style="stroke: none; stroke-width: 1; stroke-dasharray: none; stroke-linecap: butt; stroke-dashoffset: 0; stroke-linejoin: miter; stroke-miterlimit: 4; is-custom-font: none; font-file-url: none; fill: rgb(0,153,168); fill-rule: nonzero; opacity: 1;" vector-effect="non-scaling-stroke" transform=" translate(-291.0416, -299.7)" d="M 268.1 279.5 c 1.2 -0.7 2.4 -1.5 4.1 -2.2 c 3.8 -1.4 8.6 -1.8 12.1 -0.5 c 0.1 0 0.1 -0.1 0 -0.3 c -0.5 -2.9 1.2 -5.8 2.9 -8.1 c 2.7 -2.5 6.3 -4.8 11.1 -6.3 c 0.5 0 1 -0.1 1.2 -0.1 c 0 0.1 0 0.2 0 0.3 l -1.2 0.4 c -1.5 1.1 -2.6 2.3 -3.5 3.5 c -0.6 0 -1 0 -1.1 -0.5 c 0.1 0.6 0.2 1.2 0.3 1.8 c -0.7 1.2 -1.2 2.6 -1.8 4 c -1.4 -0.3 -2.7 -0.6 -4.1 -0.5 c 1.3 0 2.3 0.9 3.7 1.3 c 0 0.1 0 0.1 -0.1 0.2 l -0.5 2.2 c 0.6 -0.4 1 -0.7 1.3 -1.2 c 2.7 -2 7.6 -3.7 11.7 -3.1 c 4.6 0.7 8.9 2.3 11.5 5.2 c 0.4 0.4 0.8 0.9 1.2 1.2 c -0.1 0.2 -0.2 0.3 -0.5 0.3 c -1.2 -1 -2.9 -2.1 -4.6 -2.5 c -0.8 -0.2 -1.7 -0.3 -2.5 -0.3 c 0.2 -1 -1.7 -0.9 -2.1 -1.8 c 0.2 0.8 0.6 1.3 1.2 1.9 c -1.7 0.1 -3.4 0.5 -4.9 1.1 c -0.5 -1.2 -2.3 -2 -3.1 -2.9 c 0.2 1.2 1.1 2.3 2 3.4 c 0 0 -0.1 0 -0.1 0.1 c 0 0.2 -2.1 0.9 -2.1 0.9 c 3.4 0.4 6.1 1.1 8.8 2.7 c 3.9 2.2 6.3 5 7.8 8.6 c 0.9 1.7 0.9 3.5 1.5 5.2 c 0 0.1 -0.2 0.2 -0.2 0.3 c -0.2 0.1 -0.6 0 -0.8 -0.1 c -0.1 -0.4 -0.4 -0.7 -0.7 -1.1 c -0.8 -1.2 -1.7 -2.2 -2.6 -3.2 c -0.1 -0.7 -0.2 -1.5 -0.3 -2.2 c -0.1 0.4 -0.4 0.8 -0.6 1.3 c -1.4 -1.3 -5.6 -4.1 -5.7 -4.1 c -0.2 -1.1 -0.3 -1.7 -0.4 -2.9 c -0.3 0.7 -0.7 1.5 -0.9 2.3 c -2 -0.9 -4.1 -1.6 -6.8 -1.9 c -0.3 0.1 -1.2 -0.2 -1.9 0.1 c 0.3 0.3 0.8 0.3 1 0.6 c 4 1.9 6.6 4.9 7.2 8.6 c 0.2 4 -1.1 8.2 -2.9 11.6 c -0.1 0 -0.2 0.1 -0.2 0.1 l 0 0 c -0.1 -1.5 0.4 -3.1 0.2 -4.7 c 0 -0.1 0 -0.4 -0.1 -0.8 c 0 0 -0.1 0 -0.1 0.1 c 0 -0.1 0 -0.2 -0.1 -0.3 c 0 0 0.1 -0.1 0.1 -0.2 c -0.1 -0.5 -0.3 -1.2 -0.7 -1.7 c 0.5 -1.7 1.1 -3 1.7 -4.2 c -1.3 1 -1.8 2 -2.2 3 c -0.6 -1.1 -1.3 -2.1 -2.2 -3 l 0 0 l 0 0 c 0.4 -0.5 1.4 -0.9 0.5 -1.2 c 0.1 -0.5 0.2 -1 0.1 -1.5 c -0.5 0.5 -1 1.4 -1.2 2.2 c -0.7 -0.7 -1.5 -1.4 -2.4 -1.9 c -0.6 0.4 -1.3 0.8 -2.1 1.1 v 0.1 h -0.1 c 0 0 0 0.1 0.1 0.1 c 0.1 0.2 0.1 0.3 0.2 0.5 c 0.1 0.1 0.1 0.3 0.2 0.4 c 0.5 1.1 1 2.1 1.2 2.7 c 0.2 0.7 0.1 2.2 0.4 3.9 c 0.2 1.1 0.7 2.5 0.8 3.8 c 0.1 1.2 0 2.5 0 3.8 c 0 1.1 0.2 2.4 0.2 3.6 c 0 0.2 0 0.4 0 0.6 c 0 0.3 0 0.6 -0.1 0.9 c 0 0.3 -0.1 0.6 -0.1 0.9 c -0.1 0.6 -0.4 0.9 -0.4 1.5 c -0.1 0.6 -0.1 1.2 -0.2 1.8 c 0 0.1 0 0.2 0 0.2 v 0.2 c 0 0.6 0.1 1.1 0.1 1.4 c 0 0.4 -0.2 1 -0.3 1.9 c -0.1 0.6 0 1.3 -0.1 1.9 s -0.2 1.2 -0.4 1.8 c -0.1 0.6 -0.2 1.3 -0.3 1.9 c -0.1 0.6 -0.5 1.1 -0.6 1.7 c -0.2 0.6 -0.3 1.3 -0.5 1.8 c -0.3 0.7 -0.4 1.6 -0.6 1.9 c -0.2 0.4 -0.5 0.4 -0.8 1 c 0 0.1 -0.1 0.2 -0.1 0.3 c 0.2 0 0.3 0.1 0.5 0.1 c -1.4 1.7 -2 3.8 -2 6 c -0.1 0.3 -0.2 0.6 -0.2 0.9 c -2.8 0 -5.6 0 -8.3 0 c 0.1 -0.3 0.1 -0.7 0.1 -1.1 c 0 -0.1 0 -0.1 0 -0.1 c 0 -0.2 0.1 -0.4 0.1 -0.6 c 0.2 -0.8 0.5 -1.6 0.8 -2.4 c 0.2 -0.7 0.4 -1.4 0.6 -2.1 c 0.2 -0.4 0.4 -0.7 0.5 -1.1 c 0.2 -0.1 0.5 -0.2 0.7 -0.2 l 0 0 c 0.2 -0.3 0.3 -0.6 0.4 -0.9 s 0.2 -0.6 0.3 -0.9 c 0.3 -0.6 0.7 -0.8 1 -1.2 c 0.3 -0.5 0.6 -1.2 0.8 -1.6 c 0.3 -0.5 0.6 -0.9 0.9 -1.3 c 0.2 -0.3 0.5 -0.6 0.8 -1.2 c 0.2 -0.5 0.3 -1.1 0.5 -1.6 c 0.1 -0.3 0.2 -0.5 0.3 -0.8 c 0.1 -0.3 0.2 -0.5 0.2 -0.8 c 0.1 -0.5 0.1 -1.1 0.2 -1.5 c 0.1 -0.6 0.4 -1.2 0.5 -1.6 c 0.1 -0.3 0.1 -1.1 0.3 -1.8 c 0 -0.1 0.1 -0.3 0.1 -0.4 s 0.1 -0.2 0.1 -0.3 v -0.1 c 0 -0.1 0.1 -0.2 0.1 -0.3 v -0.1 c 0 -0.1 0.1 -0.3 0.1 -0.4 c 0.1 -0.5 0.4 -0.7 0.5 -1.3 c 0.1 -0.6 0.1 -1.4 0.2 -1.9 c 0.1 -0.6 0.2 -1.1 0.3 -1.6 c 0.1 -0.8 0.1 -1.3 0.2 -1.7 c 0 -0.6 0.1 -0.7 0 -1.3 c -0.1 -0.3 0 -1.1 0 -1.8 c 0 -0.5 -0.1 -0.9 -0.2 -1.6 c 0 -0.5 0 -1 -0.1 -1.7 c 0 -0.5 -0.1 -1.1 -0.2 -1.7 c 0 -0.6 0 -1.1 -0.1 -1.5 c -0.1 -0.6 -0.2 -1.2 -0.3 -1.7 c 0 -0.6 0.2 -0.9 0.1 -1.3 s -0.2 -0.8 -0.3 -1.3 c -0.1 -0.3 -0.1 -0.5 -0.2 -0.8 c -0.1 -0.2 -0.1 -0.5 -0.2 -0.7 c 0 -0.1 -0.1 -0.2 -0.1 -0.2 c -0.1 -0.2 -0.1 -0.3 -0.2 -0.5 l 0 0 c -0.5 0 -1 0 -1.4 -0.1 c -0.1 -0.7 -0.2 -1.5 -0.3 -2.1 c 0.1 -0.3 0.1 -0.6 -0.2 -0.9 c -0.5 1 -0.9 1.7 -1.1 2.5 c -0.5 -0.2 -1.1 -0.4 -1.2 -0.4 c -0.4 -0.2 -0.8 -0.5 -1.1 -0.9 c -0.2 0.3 -0.4 0.6 -0.6 0.9 c -0.4 0.5 -0.6 0.8 -0.7 1 c -0.3 -0.2 -0.6 -0.5 -0.9 -0.8 c 0.1 0.6 0.2 1.2 0.3 1.9 c -0.5 1.5 -1.1 3.1 -1.4 4.8 c -0.6 -1 -1.5 -1.9 -1.8 -3.2 c 0.3 1.6 0.5 3.2 1.7 4.3 c -0.1 1.5 0.2 3 1.3 4.2 c 0.1 0.3 0.5 0.5 0.4 0.6 c -0.2 0.1 -0.3 0.1 -0.4 0 c -1.2 -1 -2.3 -2.1 -3.2 -3.4 c 0 0.1 0 0.1 0 0.1 c -0.9 -1.4 -2.1 -3.4 -2.4 -5.1 l 0 0 c -0.1 -0.4 -0.2 -0.8 -0.3 -1.3 l 0 0 v -0.2 c -0.4 -3.2 1 -6.8 3.9 -9 l -0.1 -0.1 c -1.3 -0.2 -2.5 -0.3 -3.9 -0.3 c 0.4 -0.9 0.2 -1.8 0.1 -2.6 c -0.4 0.9 -1.2 1.9 -1.4 2.7 c -0.9 0.2 -1.9 0.2 -3.3 0.6 c -0.8 0.4 -1.5 0.8 -2.2 1.1 c 0 -0.3 0.3 -0.6 -0.2 -0.9 c 0.1 0.5 -0.7 1 -0.8 1.5 c -0.2 0.1 -0.4 0.2 -0.6 0.3 c -0.5 0.5 -1 0.9 -1.4 1.4 c -0.4 -0.7 -1.1 -1.4 -1.3 -2 c -0.2 1.1 -0.7 2.4 0.1 3.4 c -0.6 0.8 -1 1.7 -1.3 2.6 c 0 0.2 -0.2 0.2 -0.3 0.2 c -0.3 0.2 0.1 0.6 -0.5 0.9 c 0 -0.1 -0.2 -0.1 -0.3 -0.2 c 0 0 0 -0.1 0 -0.2 c 0.7 -1 -0.6 -1.9 -0.8 -3 C 263.6 285.2 265.2 282.1 268.1 279.5 z" stroke-linecap="round"/>
</g>
		<g transform="matrix(1.2276 0 0 1.2276 91.6013 -81.5957)" id="Layer_1">
<path style="stroke: none; stroke-width: 1; stroke-dasharray: none; stroke-linecap: butt; stroke-dashoffset: 0; stroke-linejoin: miter; stroke-miterlimit: 4; is-custom-font: none; font-file-url: none; fill: rgb(16,32,54); fill-rule: nonzero; opacity: 1;" vector-effect="non-scaling-stroke" transform=" translate(-392.7, -175.95)" d="M 376.3 191.1 l 6.4 -30.3 h 14 c 3.7 0 6.7 0.9 9 2.8 c 2.3 1.9 3.4 4.7 3.4 8.4 c 0 1.3 -0.1 2.6 -0.4 4.1 c -1 5.3 -3 9.1 -5.9 11.4 c -3 2.3 -6.9 3.5 -11.9 3.5 h -14.6 V 191.1 z M 388 183.4 h 2.6 c 1.4 0 2.7 -0.2 3.6 -0.6 c 1 -0.4 1.8 -1.1 2.4 -2.1 s 1.2 -2.6 1.6 -4.6 c 0.3 -1.4 0.4 -2.5 0.4 -3.4 c 0 -1.6 -0.4 -2.6 -1.2 -3.1 c -0.8 -0.5 -2.1 -0.8 -3.7 -0.8 h -2.6 L 388 183.4 z" stroke-linecap="round"/>
</g>
		<g transform="matrix(1.2276 0 0 1.2276 127.2631 -81.5957)" id="Layer_1">
<path style="stroke: none; stroke-width: 1; stroke-dasharray: none; stroke-linecap: butt; stroke-dashoffset: 0; stroke-linejoin: miter; stroke-miterlimit: 4; is-custom-font: none; font-file-url: none; fill: rgb(16,32,54); fill-rule: nonzero; opacity: 1;" vector-effect="non-scaling-stroke" transform=" translate(-421.75, -175.95)" d="M 404.8 191.1 l 18 -30.3 h 10.6 l 5.3 30.3 h -10.1 l -1.1 -6 h -8.2 l -3.6 6 H 404.8 z M 421.9 178.1 h 5.7 l -1.3 -7.3 L 421.9 178.1 z" stroke-linecap="round"/>
</g>
		<g transform="matrix(1.2276 0 0 1.2276 169.37 -81.5344)" id="Layer_1">
<path style="stroke: none; stroke-width: 1; stroke-dasharray: none; stroke-linecap: butt; stroke-dashoffset: 0; stroke-linejoin: miter; stroke-miterlimit: 4; is-custom-font: none; font-file-url: none; fill: rgb(16,32,54); fill-rule: nonzero; opacity: 1;" vector-effect="non-scaling-stroke" transform=" translate(-456.05, -176)" d="M 444.6 191.1 l 2.3 -11 l -6.8 -19.2 h 10.2 l 3.2 10.5 l 7.7 -10.5 H 472 l -15 19.2 l -2.3 11 H 444.6 z" stroke-linecap="round"/>
</g>
		<g transform="matrix(1.2276 0 0 1.2276 203.8656 -81.5957)" id="Layer_1">
<path style="stroke: none; stroke-width: 1; stroke-dasharray: none; stroke-linecap: butt; stroke-dashoffset: 0; stroke-linejoin: miter; stroke-miterlimit: 4; is-custom-font: none; font-file-url: none; fill: rgb(16,32,54); fill-rule: nonzero; opacity: 1;" vector-effect="non-scaling-stroke" transform=" translate(-484.15, -175.95)" d="M 473.5 191.1 l 4.8 -22.9 h -8.1 l 1.6 -7.4 h 26.3 l -1.6 7.4 h -8.1 l -4.8 22.9 H 473.5 z" stroke-linecap="round"/>
</g>
		<g transform="matrix(1.2276 0 0 1.2276 237.0723 -81.5957)" id="Layer_1">
<path style="stroke: none; stroke-width: 1; stroke-dasharray: none; stroke-linecap: butt; stroke-dashoffset: 0; stroke-linejoin: miter; stroke-miterlimit: 4; is-custom-font: none; font-file-url: none; fill: rgb(16,32,54); fill-rule: nonzero; opacity: 1;" vector-effect="non-scaling-stroke" transform=" translate(-511.2, -175.95)" d="M 507.9 191.6 c -2.6 0 -4.9 -0.4 -6.8 -1.2 c -2 -0.8 -3.5 -2 -4.6 -3.6 s -1.6 -3.7 -1.6 -6.2 c 0 -0.7 0 -1.5 0.1 -2.2 c 0.1 -0.8 0.2 -1.6 0.4 -2.4 c 0.8 -3.8 2 -6.8 3.6 -9.1 s 3.7 -3.9 6.2 -5 c 2.6 -1 5.6 -1.6 9.3 -1.6 c 4 0 7.2 0.9 9.5 2.7 s 3.5 4.6 3.5 8.4 c 0 0.7 0 1.4 -0.1 2.2 s -0.2 1.6 -0.4 2.4 c -0.8 3.7 -2 6.7 -3.6 9 s -3.7 3.9 -6.2 5 C 514.6 191.1 511.5 191.6 507.9 191.6 z M 509.7 183.1 c 1.9 0 3.5 -0.5 4.6 -1.6 s 1.9 -2.9 2.4 -5.4 c 0.3 -1.3 0.4 -2.4 0.4 -3.3 c 0 -1.4 -0.3 -2.3 -1 -2.9 c -0.7 -0.6 -1.8 -0.8 -3.4 -0.8 c -2 0 -3.5 0.5 -4.6 1.6 c -1.1 1 -1.9 2.9 -2.4 5.5 c -0.3 1.3 -0.4 2.3 -0.4 3.2 c 0 1.3 0.4 2.3 1.1 2.9 C 507 182.8 508.1 183.1 509.7 183.1 z" stroke-linecap="round"/>
</g>
		<g transform="matrix(1.2276 0 0 1.2276 277.5831 -81.5957)" id="Layer_1">
<path style="stroke: none; stroke-width: 1; stroke-dasharray: none; stroke-linecap: butt; stroke-dashoffset: 0; stroke-linejoin: miter; stroke-miterlimit: 4; is-custom-font: none; font-file-url: none; fill: rgb(16,32,54); fill-rule: nonzero; opacity: 1;" vector-effect="non-scaling-stroke" transform=" translate(-544.2, -175.95)" d="M 526.7 191.1 l 6.4 -30.3 h 8.5 l 7 14 l 3 -14 h 10.1 l -6.4 30.3 h -8.6 l -7 -13.9 l -2.9 13.9 H 526.7 z" stroke-linecap="round"/>
</g>
		<g transform="matrix(1.2276 0 0 1.2276 315.4548 -81.5957)" id="Layer_1">
<path style="stroke: none; stroke-width: 1; stroke-dasharray: none; stroke-linecap: butt; stroke-dashoffset: 0; stroke-linejoin: miter; stroke-miterlimit: 4; is-custom-font: none; font-file-url: none; fill: rgb(16,32,54); fill-rule: nonzero; opacity: 1;" vector-effect="non-scaling-stroke" transform=" translate(-575.05, -175.95)" d="M 558.1 191.1 l 18 -30.3 h 10.6 l 5.3 30.3 h -10.1 l -1.1 -6 h -8.2 l -3.6 6 H 558.1 z M 575.2 178.1 h 5.7 l -1.3 -7.3 L 575.2 178.1 z" stroke-linecap="round"/>
</g>
		<g transform="matrix(1.2276 0 0 1.2276 79.1412 -30.2819)" id="Layer_1">
<path style="stroke: none; stroke-width: 1; stroke-dasharray: none; stroke-linecap: butt; stroke-dashoffset: 0; stroke-linejoin: miter; stroke-miterlimit: 4; is-custom-font: none; font-file-url: none; fill: rgb(16,32,54); fill-rule: nonzero; opacity: 1;" vector-effect="non-scaling-stroke" transform=" translate(-382.55, -217.75)" d="M 366.7 232.9 l 6.4 -30.3 h 17.3 c 2.6 0 4.5 0.6 5.9 1.8 s 2.1 2.8 2.1 4.8 c 0 0.3 0 0.6 0 0.9 c 0 0.3 -0.1 0.6 -0.1 0.9 c -0.3 1.5 -0.9 2.8 -1.6 3.9 c -0.8 1.1 -1.7 1.9 -2.7 2.5 c 0.9 0.4 1.6 1 2.1 1.7 s 0.8 1.6 0.8 2.7 c 0 0.3 0 0.6 0 0.9 c 0 0.3 -0.1 0.6 -0.1 1 c -0.6 2.9 -1.9 5.1 -3.8 6.7 c -1.9 1.6 -4.8 2.4 -8.5 2.4 h -17.8 V 232.9 z M 377.8 226 h 5.2 c 1.1 0 1.8 -0.2 2.3 -0.6 c 0.5 -0.4 0.9 -1.1 1.1 -2 c 0 -0.1 0.1 -0.2 0.1 -0.4 c 0 -0.1 0 -0.2 0 -0.3 c 0 -1.2 -0.8 -1.8 -2.5 -1.8 h -5.1 L 377.8 226 z M 380.2 214.5 h 5 c 1 0 1.8 -0.2 2.3 -0.6 c 0.5 -0.4 0.8 -1 1 -1.8 c 0 -0.1 0.1 -0.2 0.1 -0.4 c 0 -0.1 0 -0.2 0 -0.4 c 0 -1.2 -0.8 -1.7 -2.4 -1.7 h -4.8 L 380.2 214.5 z" stroke-linecap="round"/>
</g>
		<g transform="matrix(1.2276 0 0 1.2276 115.8465 -30.2205)" id="Layer_1">
<path style="stroke: none; stroke-width: 1; stroke-dasharray: none; stroke-linecap: butt; stroke-dashoffset: 0; stroke-linejoin: miter; stroke-miterlimit: 4; is-custom-font: none; font-file-url: none; fill: rgb(16,32,54); fill-rule: nonzero; opacity: 1;" vector-effect="non-scaling-stroke" transform=" translate(-412.45, -217.8)" d="M 397.5 232.9 l 6.4 -30.3 h 23.5 l -1.6 7.5 h -13.4 l -0.8 3.9 h 11.7 l -1.6 7.7 H 410 l -0.8 3.8 h 13.4 L 421 233 L 397.5 232.9 L 397.5 232.9 z" stroke-linecap="round"/>
</g>
		<g transform="matrix(1.2276 0 0 1.2276 149.2372 -30.2819)" id="Layer_1">
<path style="stroke: none; stroke-width: 1; stroke-dasharray: none; stroke-linecap: butt; stroke-dashoffset: 0; stroke-linejoin: miter; stroke-miterlimit: 4; is-custom-font: none; font-file-url: none; fill: rgb(16,32,54); fill-rule: nonzero; opacity: 1;" vector-effect="non-scaling-stroke" transform=" translate(-439.65, -217.75)" d="M 422.7 232.9 l 18 -30.3 h 10.6 l 5.3 30.3 h -10.1 l -1.1 -6 h -8.2 l -3.6 6 H 422.7 z M 439.8 219.8 h 5.7 l -1.3 -7.3 L 439.8 219.8 z" stroke-linecap="round"/>
</g>
		<g transform="matrix(1.2276 0 0 1.2276 191.0372 -30.1591)" id="Layer_1">
<path style="stroke: none; stroke-width: 1; stroke-dasharray: none; stroke-linecap: butt; stroke-dashoffset: 0; stroke-linejoin: miter; stroke-miterlimit: 4; is-custom-font: none; font-file-url: none; fill: rgb(16,32,54); fill-rule: nonzero; opacity: 1;" vector-effect="non-scaling-stroke" transform=" translate(-473.7, -217.85)" d="M 473.1 233.4 c -2.9 0 -5.5 -0.4 -7.6 -1.3 c -2.2 -0.9 -3.9 -2.2 -5.1 -3.9 s -1.8 -3.9 -1.8 -6.4 c 0 -1.2 0.1 -2.5 0.4 -3.8 c 1.1 -5.1 3.3 -9 6.5 -11.7 c 3.3 -2.7 8 -4 14.2 -4 c 1.8 0 3.5 0.1 5 0.4 c 1.5 0.3 2.8 0.7 4.1 1.2 l -1.9 8.8 c -1.3 -0.7 -2.5 -1.1 -3.7 -1.4 c -1.2 -0.3 -2.7 -0.4 -4.5 -0.4 c -2.5 0 -4.6 0.5 -6.2 1.6 s -2.6 2.9 -3.1 5.5 c -0.1 0.5 -0.2 1 -0.2 1.4 c -0.1 0.4 -0.1 0.8 -0.1 1.2 c 0 1.6 0.5 2.7 1.6 3.4 c 1 0.6 2.8 1 5.1 1 c 1.5 0 3 -0.1 4.5 -0.4 c 1.5 -0.3 3 -0.8 4.5 -1.4 l -1.9 8.8 c -1.5 0.5 -3 0.9 -4.5 1.2 C 476.8 233.2 475 233.4 473.1 233.4 z" stroke-linecap="round"/>
</g>
		<g transform="matrix(1.2276 0 0 1.2276 227.3742 -30.2819)" id="Layer_1">
<path style="stroke: none; stroke-width: 1; stroke-dasharray: none; stroke-linecap: butt; stroke-dashoffset: 0; stroke-linejoin: miter; stroke-miterlimit: 4; is-custom-font: none; font-file-url: none; fill: rgb(16,32,54); fill-rule: nonzero; opacity: 1;" vector-effect="non-scaling-stroke" transform=" translate(-503.3, -217.75)" d="M 485.5 232.9 l 6.4 -30.3 H 502 l -2.2 10.6 h 9 l 2.2 -10.6 h 10.1 l -6.4 30.3 h -10.1 l 2.2 -10.6 h -9 l -2.2 10.6 H 485.5 z" stroke-linecap="round"/>
</g>
		<g transform="matrix(1.8713 0 0 0.8265 197.3736 -54.4886)" id="615490">
<path style="stroke: none; stroke-width: 0; stroke-dasharray: none; stroke-linecap: butt; stroke-dashoffset: 0; stroke-linejoin: miter; stroke-miterlimit: 4; is-custom-font: none; font-file-url: none; fill: rgb(255,255,255); fill-rule: nonzero; opacity: 1;" vector-effect="non-scaling-stroke" transform=" translate(-79, -78.9999)" d="M 154.685 2.50049 H 154.711 L 154.738 2.49994 C 155.15 2.49126 155.491 2.81853 155.5 3.2304 L 155.5 3.23069 C 155.5 3.24095 155.5 3.25176 155.5 3.26283 L 155.499 3.28886 V 3.3149 V 154.686 C 155.499 155.135 155.135 155.5 154.685 155.5 H 3.31409 C 2.86449 155.5 2.5 155.135 2.5 154.686 V 3.3149 C 2.5 2.86483 2.86465 2.50049 3.31409 2.50049 H 154.685 Z" stroke-linecap="round"/>
</g>
		<g transform="matrix(0.8265 0 0 0.8265 177.073 -76.2372)" id="500344">
<path style="stroke: none; stroke-width: 1; stroke-dasharray: none; stroke-linecap: butt; stroke-dashoffset: 0; stroke-linejoin: miter; stroke-miterlimit: 4; is-custom-font: none; font-file-url: none; fill: rgb(0,0,0); fill-rule: nonzero; opacity: 1;" transform=" translate(62.33, 32.45)" d="M -190.85 -9.7 L -190.85 -9.7 Q -196.96 -9.7 -199.67 -12.75 Q -202.37 -15.79 -202.37 -22.45 L -202.37 -22.45 L -202.37 -26.81 L -193.54 -26.81 L -193.54 -21.23 Q -193.54 -19.68 -193.07 -18.8 Q -192.6 -17.93 -191.43 -17.93 L -191.43 -17.93 Q -190.21 -17.93 -189.74 -18.64 Q -189.27 -19.35 -189.27 -20.97 L -189.27 -20.97 Q -189.27 -23.03 -189.68 -24.41 Q -190.08 -25.8 -191.09 -27.05 Q -192.09 -28.31 -193.87 -29.99 L -193.87 -29.99 L -197.88 -33.8 Q -202.37 -38.04 -202.37 -43.5 L -202.37 -43.5 Q -202.37 -49.21 -199.72 -52.2 Q -197.07 -55.2 -192.04 -55.2 L -192.04 -55.2 Q -185.89 -55.2 -183.32 -51.93 Q -180.74 -48.65 -180.74 -41.97 L -180.74 -41.97 L -189.83 -41.97 L -189.83 -45.04 Q -189.83 -45.96 -190.35 -46.47 Q -190.87 -46.97 -191.76 -46.97 L -191.76 -46.97 Q -192.83 -46.97 -193.32 -46.38 Q -193.82 -45.78 -193.82 -44.84 L -193.82 -44.84 Q -193.82 -43.9 -193.31 -42.81 Q -192.8 -41.72 -191.3 -40.3 L -191.3 -40.3 L -186.15 -35.34 Q -184.6 -33.87 -183.3 -32.23 Q -182.01 -30.6 -181.22 -28.43 Q -180.44 -26.26 -180.44 -23.13 L -180.44 -23.13 Q -180.44 -16.84 -182.76 -13.27 Q -185.08 -9.7 -190.85 -9.7 Z M -170 -10.11 L -178.68 -10.11 L -174.37 -54.79 L -159.21 -54.79 L -154.97 -10.11 L -163.42 -10.11 L -164.06 -17.32 L -169.44 -17.32 L -170 -10.11 Z M -167.11 -47.18 L -168.81 -24.45 L -164.74 -24.45 L -166.7 -47.18 L -167.11 -47.18 Z M -143.49 -10.11 L -152.23 -10.11 L -152.23 -54.79 L -143.04 -54.79 L -138.92 -33.39 L -138.92 -54.79 L -130.29 -54.79 L -130.29 -10.11 L -139.02 -10.11 L -143.49 -32.45 L -143.49 -10.11 Z M -103.73 -9.7 L -103.73 -9.7 Q -108.58 -9.7 -111.54 -12.72 Q -114.5 -15.74 -114.5 -21.18 L -114.5 -21.18 L -114.5 -41.79 Q -114.5 -48.29 -111.92 -51.75 Q -109.34 -55.2 -103.53 -55.2 L -103.53 -55.2 Q -100.35 -55.2 -97.88 -54.03 Q -95.4 -52.86 -93.98 -50.54 Q -92.56 -48.22 -92.56 -44.69 L -92.56 -44.69 L -92.56 -36.97 L -101.45 -36.97 L -101.45 -43.57 Q -101.45 -45.58 -101.95 -46.28 Q -102.46 -46.97 -103.53 -46.97 L -103.53 -46.97 Q -104.77 -46.97 -105.2 -46.07 Q -105.63 -45.17 -105.63 -43.67 L -105.63 -43.67 L -105.63 -21.3 Q -105.63 -19.45 -105.09 -18.69 Q -104.54 -17.93 -103.53 -17.93 L -103.53 -17.93 Q -102.38 -17.93 -101.91 -18.87 Q -101.45 -19.81 -101.45 -21.3 L -101.45 -21.3 L -101.45 -29.35 L -92.46 -29.35 L -92.46 -20.9 Q -92.46 -15.01 -95.43 -12.35 Q -98.4 -9.7 -103.73 -9.7 Z M -71.36 -10.11 L -89.49 -10.11 L -89.49 -54.79 L -80.55 -54.79 L -80.55 -17.72 L -71.36 -17.72 L -71.36 -10.11 Z M -50.36 -10.11 L -68.82 -10.11 L -68.82 -54.79 L -50.94 -54.79 L -50.94 -46.16 L -59.73 -46.16 L -59.73 -37.45 L -51.3 -37.45 L -51.3 -29.05 L -59.73 -29.05 L -59.73 -18.82 L -50.36 -18.82 L -50.36 -10.11 Z M -39.34 -10.11 L -47.41 -10.11 L -47.41 -54.79 L -33.8 -54.79 L -30.05 -27.55 L -26.31 -54.79 L -12.58 -54.79 L -12.58 -10.11 L -20.75 -10.11 L -20.75 -42.3 L -25.88 -10.11 L -33.91 -10.11 L -39.34 -42.3 L -39.34 -10.11 Z M 9.84 -10.11 L -8.62 -10.11 L -8.62 -54.79 L 9.26 -54.79 L 9.26 -46.16 L 0.47 -46.16 L 0.47 -37.45 L 8.9 -37.45 L 8.9 -29.05 L 0.47 -29.05 L 0.47 -18.82 L 9.84 -18.82 L 9.84 -10.11 Z M 21.52 -10.11 L 12.79 -10.11 L 12.79 -54.79 L 21.98 -54.79 L 26.09 -33.39 L 26.09 -54.79 L 34.72 -54.79 L 34.72 -10.11 L 25.99 -10.11 L 21.52 -32.45 L 21.52 -10.11 Z M 51.46 -10.11 L 42.52 -10.11 L 42.52 -46.21 L 37.21 -46.21 L 37.21 -54.79 L 56.76 -54.79 L 56.76 -46.21 L 51.46 -46.21 L 51.46 -10.11 Z M 77.71 -10.11 L 59.25 -10.11 L 59.25 -54.79 L 77.13 -54.79 L 77.13 -46.16 L 68.34 -46.16 L 68.34 -37.45 L 76.77 -37.45 L 76.77 -29.05 L 68.34 -29.05 L 68.34 -18.82 L 77.71 -18.82 L 77.71 -10.11 Z" stroke-linecap="round"/>
</g>
		<g transform="matrix(0.8265 0 0 0.8265 91.4925 -32.5347)" id="500344">
<path style="stroke: none; stroke-width: 1; stroke-dasharray: none; stroke-linecap: butt; stroke-dashoffset: 0; stroke-linejoin: miter; stroke-miterlimit: 4; is-custom-font: none; font-file-url: none; fill: rgb(0,0,0); fill-rule: nonzero; opacity: 1;" transform=" translate(165.875, -20.43)" d="M -178.86 43.18 L -178.86 43.18 Q -183.71 43.18 -186.67 40.16 Q -189.63 37.14 -189.63 31.71 L -189.63 31.71 L -189.63 11.09 Q -189.63 4.59 -187.05 1.14 Q -184.47 -2.32 -178.66 -2.32 L -178.66 -2.32 Q -175.48 -2.32 -173.01 -1.15 Q -170.53 0.02 -169.11 2.34 Q -167.69 4.67 -167.69 8.2 L -167.69 8.2 L -167.69 15.91 L -176.58 15.91 L -176.58 9.31 Q -176.58 7.31 -177.08 6.61 Q -177.59 5.91 -178.66 5.91 L -178.66 5.91 Q -179.9 5.91 -180.33 6.81 Q -180.77 7.71 -180.77 9.21 L -180.77 9.21 L -180.77 31.58 Q -180.77 33.43 -180.22 34.2 Q -179.67 34.96 -178.66 34.96 L -178.66 34.96 Q -177.52 34.96 -177.05 34.02 Q -176.58 33.08 -176.58 31.58 L -176.58 31.58 L -176.58 23.53 L -167.59 23.53 L -167.59 31.99 Q -167.59 37.88 -170.56 40.53 Q -173.53 43.18 -178.86 43.18 Z M -157.15 42.78 L -165.84 42.78 L -161.52 -1.91 L -146.36 -1.91 L -142.12 42.78 L -150.58 42.78 L -151.21 35.57 L -156.59 35.57 L -157.15 42.78 Z M -154.26 5.71 L -155.96 28.43 L -151.9 28.43 L -153.85 5.71 L -154.26 5.71 Z" stroke-linecap="round"/>
</g>
</g>
</g>
</svg>