<svg id="e5AjeVsi0a21" xmlns="http://www.w3.org/2000/svg" xmlns:xlink="http://www.w3.org/1999/xlink" viewBox="0 0 612 300" shape-rendering="geometricPrecision" text-rendering="geometricPrecision"><g transform="translate(-11.900301 56.725548)"><g transform="translate(-3.850012-192.568499)"><g><path d="M211,213.7h30.2h6.7c18.2-.5,36.1,12.3,31.5,39.1-4.1,23.7-24.4,35-43.5,35h-14.6l-2.5,11.7c-2,6.8-6.9,11.4-13.9,11.4h-15L211,213.7Z" fill="#f96239"/><path d="M181.6,213.7h-26.1l-12.8,59.2c-1.7,7.7,4.2,15,12.1,15h30l5-25.6h-18.3l10.1-48.6Z" fill="#0b2340"/><path d="M133.6,213.7h-9.8-2.1v.2c-4.3.7-8.1,3.4-10,7.5L99.2,247.7l.8-34h-9.2-9-7.8c-5.6,0-10.5,3.9-11.6,9.4L48.7,287.9h26l6.7-25.6L80,287.9h19.8l11.3-25.6-5,25.6h26.3l15.7-74.2h-14.5Z" fill="#0b2340"/><path d="M241.3,231.3c-10.1,0-18.3,8.2-18.3,18.3s8.2,18.3,18.3,18.3s18.3-8.2,18.3-18.3c0-10.2-8.2-18.3-18.3-18.3Zm12,9.7c1.2-.3,2.6.8,3.1,2.5s-.1,3.4-1.3,3.8c-1.2.3-2.6-.8-3.1-2.5s.1-3.4,1.3-3.8ZM242,233.3c1.8.1,3.2,1.1,3.2,2.2-.1,1.1-1.6,2-3.4,1.9s-3.2-1.1-3.2-2.2c.1-1.2,1.6-2,3.4-1.9Zm-15.8,9.2c.5-1.7,1.9-2.9,3.1-2.5s1.8,2,1.3,3.8c-.5,1.7-1.9,2.9-3.1,2.5s-1.8-2.1-1.3-3.8Zm4.8,17.9c-.9.7-2.5.2-3.7-1.2s-1.4-3.1-.5-3.8s2.5-.2,3.7,1.2c1.1,1.3,1.3,3,.5,3.8Zm11.4,5.3c-1.7.5-3.4,0-3.7-1.1s.9-2.4,2.6-2.9s3.4,0,3.7,1.1c.3,1.2-.8,2.5-2.6,2.9Zm-.1-12c-2.1,0-3.9-1.7-3.9-3.9c0-2.1,1.7-3.9,3.9-3.9c2.1,0,3.9,1.7,3.9,3.9s-1.8,3.9-3.9,3.9Zm12.8,4.4c-1.1,1.4-2.8,2-3.8,1.2s-1-2.6.1-4s2.8-2,3.8-1.2c1,.7,1,2.5-.1,4Z" fill="#fff"/></g><g><g><path d="M112.2,316.1c-.3-.2-.6-.5-.9-.8l-.3.9h-2.6l2.3-16h3l-.7,5.2c.3-.2.6-.4,1-.5s.7-.2,1.1-.2c.9,0,1.7.3,2.2,1c.5.6.8,1.6.8,3c0,.6,0,1.2-.1,1.8-.6,4-2,6-4.4,6-.6-.1-1.1-.2-1.4-.4Zm1.9-3.6c.3-.4.5-1.1.6-2.1.1-.5.1-.8.1-1.1c0-.5-.1-.9-.3-1.1s-.4-.3-.8-.3c-.5,0-.9.2-1.3.6l-.6,4c.3.5.6.7,1.1.7.6,0,1-.2,1.2-.7Z" fill="#0b2340"/><path d="M119,320.3c-.5,0-.8-.1-1-.2l.5-3.2c.2.1.5.2.8.2.3.1.6.1.9.1.9,0,1.6-.1,2.1-.3s.8-.6.8-1.1l.1-.5c-.8.7-1.7,1.1-2.7,1.1-.7,0-1.2-.3-1.7-.9-.4-.6-.6-1.4-.6-2.4c0-.3,0-.7.1-1.1l1-7.1h3l-1,6.7c0,.2,0,.5,0,.6c0,.3.1.5.2.7.1.1.3.2.7.2.2,0,.5-.1.7-.2.3-.2.5-.4.7-.6l1.1-7.4h3l-1.4,9.8c-.3,1.9-.9,3.3-1.8,4.2-.9,1-2.4,1.4-4.3,1.4-.3,0-.7,0-1.2,0Z" fill="#0b2340"/></g></g><g><g><g><path d="M286.9,357.1c-.3-.2-.5-.4-.6-.7-.2-.3-.2-.6-.2-1c0-.2,0-.3,0-.5.1-.5.3-.9.5-1.3s.6-.7.9-.9c.4-.2.8-.3,1.2-.3.3,0,.6.1.9.3s.5.4.6.7.2.6.2,1c0,.2,0,.4,0,.5-.1.5-.2.9-.5,1.3-.2.4-.5.7-.9.9s-.8.3-1.2.3-.6-.1-.9-.3Zm1.9-.5c.3-.2.5-.4.7-.7s.3-.6.4-1c0-.2,0-.3,0-.5c0-.5-.1-.8-.4-1.1-.2-.3-.6-.4-1-.4-.3,0-.7.1-.9.3-.3.2-.5.4-.7.7s-.3.6-.4,1c0,.2-.1.4-.1.5c0,.5.1.8.4,1.1.2.3.6.4,1,.4s.7-.1,1-.3Zm-1.2-3.3h1.2c.2,0,.4.1.5.2s.2.3.2.5c0,.1,0,.1,0,.3s-.1.4-.3.6c-.1.2-.3.3-.5.3c0,0,.1.1.1.1s0,.1.1.2l.1.9h-.4l-.1-.9c0-.1-.1-.1-.1-.2c0,0-.1,0-.3,0h-.4l-.2,1.1h-.5l.6-3.1Zm.6,1.6c.2,0,.4,0,.5-.1s.2-.2.2-.5c0-.1,0-.1,0-.2s0-.2-.1-.3-.2-.1-.3-.1h-.7l-.2,1.1h.6Z" fill="#0099a8"/></g><g><path d="M42.2,330.3h5.1l2.6,13.9l6.5-13.9h5.4l-3.9,27.3h-5.4l1.9-13.7-4.2,9h-2.9l-1.7-9-1.9,13.7h-5.4l3.9-27.3Z" fill="#0099a8"/><path d="M71.2,330.3h5.7l3.2,27.3h-5.6l-.7-5.8h-5.6l-2.4,5.8h-5.6l11-27.3Zm2.6,15.8l-.9-8-3.2,8h4.1Z" fill="#0099a8"/><path d="M86.3,330.3h9.6c1.7,0,3,.7,4,2c.9,1.3,1.4,3.1,1.4,5.3c0,.8-.1,1.6-.2,2.5-.3,1.8-.8,3.4-1.6,4.8s-1.8,2.5-3,3.2c.2.2.3.5.4.8s.2.8.3,1.5l1.1,7.2h-5.6l-1-6.6c-.1-.5-.2-.9-.4-1.1s-.5-.3-.9-.3h-1.5l-1.1,8h-5.4l3.9-27.3Zm6.3,13.2c.8,0,1.4-.3,1.9-.9s.9-1.5,1-2.6c.1-.7.1-1.1.1-1.4c0-.7-.1-1.3-.4-1.7s-.8-.6-1.4-.6h-3l-1,7.1h2.8Z" fill="#0099a8"/><path d="M103.8,355.3c-1.5-1.8-2.2-4.3-2.2-7.7c0-1.1.1-2.3.3-3.5c1.4-9.6,5.6-14.3,12.5-14.3c2.2,0,4,.4,5.6,1.2l-1,6.8c-1.4-.8-3.1-1.2-5.2-1.2-1.7,0-3.1.6-4.2,1.8s-1.8,3.1-2.2,5.7c-.2,1.1-.3,2.1-.3,2.9c0,1.5.3,2.5.9,3.2s1.6,1,2.9,1c.9,0,1.8-.2,2.7-.6l.6-4h-3.7l.7-4.9h8.2l-2,13.8c-.9.7-2,1.3-3.2,1.8-1.3.5-2.7.7-4.3.7-2.6,0-4.6-.9-6.1-2.7Z" fill="#0099a8"/><path d="M129.8,330.3h5.7l3.2,27.3h-5.6l-.7-5.8h-5.6l-2.4,5.8h-5.6l11-27.3Zm2.7,15.8l-.9-8-3.2,8h4.1Z" fill="#0099a8"/><path d="M144.9,330.3h9.6c1.7,0,3,.7,4,2c.9,1.3,1.4,3.1,1.4,5.3c0,.8-.1,1.6-.2,2.5-.3,1.8-.8,3.4-1.6,4.8s-1.8,2.5-3,3.2c.2.2.3.5.4.8s.2.8.3,1.5l1.1,7.2h-5.6l-1-6.6c-.1-.5-.2-.9-.4-1.1s-.5-.3-.9-.3h-1.5l-1.1,8h-5.4l3.9-27.3Zm6.4,13.2c.8,0,1.4-.3,1.9-.9s.9-1.5,1-2.6c.1-.7.1-1.1.1-1.4c0-.7-.1-1.3-.4-1.7s-.8-.6-1.4-.6h-3l-1,7.1h2.8Z" fill="#0099a8"/><path d="M163.5,330.3h5.4L165,357.6h-5.4l3.9-27.3Z" fill="#0099a8"/><path d="M175,336.2h-5.2l.8-5.9h15.8l-.8,5.9h-5.2l-3.1,21.4h-5.4l3.1-21.4Z" fill="#0099a8"/><path d="M191,330.3h5.7l3.2,27.3h-5.6l-.7-5.8h-5.6l-2.4,5.8h-5.6l11-27.3Zm2.7,15.8l-.9-8-3.2,8h4.1Z" fill="#0099a8"/><path d="M202.3,330.3h5.4l1.7,18.1l6.9-18.1h5.8l-11,27.3h-5.7l-3.1-27.3Z" fill="#0099a8"/><path d="M242.8,330.3h5.4l-3,21.2h8.3l-.9,6.1h-13.7l3.9-27.3Z" fill="#0099a8"/><path d="M258.3,330.3h5.4l-3,21.2h8.3l-.9,6.1h-13.7l3.9-27.3Z" fill="#0099a8"/><path d="M273.7,330.3h14l-.9,6.1h-8.6l-.7,4.5h7.5l-.9,6.2h-7.5l-.6,4.5h8.6l-.9,6.1h-14l4-27.4Z" fill="#0099a8"/></g></g><path d="M212.9,313.1c1-.6,1.9-1.2,3.2-1.7c3-1.1,6.6-1.4,9.3-.4c0,0,0-.1,0-.2-.4-2.3.9-4.5,2.2-6.3c2.1-1.9,4.8-3.7,8.6-4.9.4,0,.7-.1,1-.1c0,.1,0,.2,0,.2l-.9.3c-1.2.8-2,1.7-2.7,2.7-.4,0-.8,0-.9-.4.1.5.2.9.2,1.4-.5,1-.9,2-1.3,3.1-1.1-.2-2.1-.4-3.1-.4c1,0,1.8.7,2.9,1c0,0,0,.1,0,.1l-.4,1.7c.5-.3.8-.5,1-.9c2.1-1.5,5.8-2.9,9-2.4c3.6.6,6.9,1.7,8.8,4c.3.3.6.7.9.9-.1.2-.2.2-.3.2-.9-.8-2.2-1.6-3.6-1.9-.6-.1-1.3-.2-1.9-.2.1-.8-1.3-.7-1.6-1.4.1.6.5,1,.9,1.4-1.3.1-2.6.4-3.8.9-.4-1-1.8-1.6-2.4-2.2.2.9.9,1.8,1.6,2.6c0,0,0,0-.1,0c0,.2-1.6.7-1.6.7c2.7.3,4.7.8,6.8,2.1c3,1.7,4.9,3.8,6,6.6.7,1.3.7,2.7,1.1,4c0,.1-.1.2-.2.2-.2.1-.5,0-.6,0-.1-.3-.3-.5-.5-.8-.6-.9-1.3-1.7-2-2.4-.1-.5-.2-1.1-.3-1.7-.1.3-.3.6-.5,1-1.1-1-4.3-3.1-4.4-3.2-.1-.8-.2-1.3-.3-2.2-.3.6-.5,1.2-.7,1.7-1.6-.7-3.1-1.2-5.2-1.5-.2,0-1-.1-1.5,0c.2.3.6.2.8.5c3,1.4,5.1,3.8,5.5,6.7.2,3.1-.8,6.3-2.2,9-.1,0-.2,0-.2,0v0c-.1-1.2.3-2.4.1-3.6c0-.1,0-.3,0-.6c0,0,0,0-.1.1c0-.1,0-.1,0-.2c0,0,.1-.1.1-.1-.1-.4-.2-.9-.6-1.3.4-1.3.8-2.3,1.3-3.3-1,.7-1.4,1.5-1.7,2.3-.4-.8-1-1.6-1.7-2.3c0,0,0,0,0,0s0,0,0,0c.3-.3,1.1-.7.4-.9.1-.4.1-.8.1-1.1-.4.4-.8,1.1-.9,1.7-.6-.5-1.2-1-1.9-1.5-.4.3-1,.6-1.6.8c0,0,0,0,0,.1c0,0-.1,0-.1,0s0,.1,0,.1c0,.1.1.2.1.4c0,.1.1.2.1.3.4.9.8,1.6.9,2.1.2.6.1,1.7.3,3c.1.9.5,1.9.6,3c.1.9,0,1.9,0,2.9c0,.9.1,1.8.1,2.7c0,.2,0,.3,0,.5s0,.4,0,.7c0,.2,0,.4-.1.7c0,.5-.3.7-.3,1.2s-.1,1-.1,1.4c0,.1,0,.1,0,.2v.2c0,.5,0,.9,0,1.1c0,.3-.2.8-.3,1.4c0,.4,0,1-.1,1.5s-.2.9-.3,1.4-.2,1-.3,1.5-.4.8-.5,1.3-.2,1-.4,1.4c-.2.6-.3,1.2-.5,1.5s-.4.3-.6.8c0,.1-.1.2-.1.2.1,0,.3.1.4.1-1,1.3-1.5,2.9-1.6,4.6-.1.2-.1.5-.2.7-2.1,0-4.3,0-6.4,0c0-.3.1-.5.1-.8c0,0,0-.1,0-.1c0-.2.1-.3.1-.5.2-.6.4-1.3.6-1.9.2-.5.3-1.1.4-1.6.2-.3.3-.6.4-.9.2-.1.4-.1.5-.2c0,0,0,0,0,0c.1-.2.2-.5.3-.7s.2-.5.3-.7c.2-.5.6-.6.8-.9.2-.4.4-.9.6-1.3.2-.3.5-.7.7-1s.4-.5.6-.9c.1-.4.2-.8.4-1.2.1-.2.1-.4.2-.6s.1-.4.2-.6c.1-.4.1-.8.2-1.2.1-.5.3-.9.3-1.2.1-.3,0-.9.2-1.4c0-.1.1-.2.1-.3s.1-.2.1-.3v-.1c0-.1,0-.1.1-.2v-.1c0-.1.1-.2.1-.3.1-.4.3-.6.4-1s.1-1,.2-1.4c.1-.5.2-.8.2-1.2.1-.6.1-1,.1-1.3c0-.5.1-.6,0-1c0-.3,0-.8,0-1.4c0-.3-.1-.7-.1-1.2c0-.4,0-.8-.1-1.3c0-.4-.1-.8-.1-1.3s0-.8,0-1.2-.2-.9-.2-1.3.1-.7.1-1c-.1-.3-.2-.6-.2-1c0-.2-.1-.4-.1-.6s-.1-.4-.1-.5s0-.1-.1-.2c0-.1-.1-.3-.1-.4v0c-.4,0-.7,0-1.1,0-.1-.5-.2-1.1-.2-1.6.1-.2.1-.4-.1-.7-.3.8-.7,1.3-.9,1.9-.4-.2-.9-.3-.9-.3-.3-.2-.6-.4-.8-.7-.2.2-.3.5-.5.7-.3.4-.4.6-.5.8-.2-.2-.5-.4-.7-.6.1.5.1.9.2,1.4-.4,1.2-.9,2.4-1.1,3.7-.5-.8-1.2-1.5-1.4-2.5.2,1.2.4,2.4,1.3,3.3-.1,1.2.2,2.3,1,3.2.1.3.4.4.3.5-.2.1-.2.1-.3,0-.9-.7-1.7-1.6-2.4-2.6c0,0,0,.1,0,.1-.7-1-1.6-2.6-1.8-3.9v0c-.1-.3-.2-.7-.2-1c0,0,0,0,0,0v-.1c-.3-2.5.8-5.2,3-6.9c0,0,0,0,0-.1-1-.1-1.9-.2-3-.2.3-.7.2-1.3.1-2-.3.7-.9,1.4-1.1,2.1-.7.1-1.5.2-2.5.5-.6.3-1.1.6-1.7.9c0-.2.2-.5-.2-.7.1.4-.5.8-.6,1.1-.2.1-.3.2-.5.3-.4.4-.7.7-1.1,1.1-.3-.5-.8-1-1-1.5-.1.8-.5,1.9.1,2.6-.5.6-.8,1.3-1,2c0,.1-.2.2-.2.2-.2.2.1.5-.4.7c0-.1-.2-.1-.2-.2c0,0,0,0,0-.1.6-.8-.4-1.5-.6-2.3-.3-3.2.9-5.6,3.1-7.6Z" fill="#0099a8"/></g></g><g transform="translate(-3.850011-192.568499)"><path d="M288.7,267.5l25.4-42.7h14.9l7.4,42.7h-14.3l-1.5-8.5h-11.6l-5,8.5h-15.3ZM312.9,249h8L319,238.6L312.9,249Z" fill="#fff"/><path d="M343.6,267.5l6.8-32.3h-11.4l2.2-10.4h37.2l-2.2,10.4h-11.5l-6.8,32.3h-14.3Z" fill="#fff"/><path d="M372.1,267.5l9-42.7h14.3l-6.8,31.9h18.3l-2.3,10.9h-32.5Z" fill="#fff"/><path d="M406,267.5l25.4-42.7h14.9l7.4,42.7h-14.3L438,259h-11.6l-5,8.5h-15.4ZM430.2,249h8l-1.9-10.4-6.1,10.4Z" fill="#fff"/><path d="M457.8,267.5l9-42.7h12l9.9,19.7l4.2-19.7h14.3l-9,42.7h-12.2l-9.8-19.6-4.1,19.6h-14.3Z" fill="#fff"/><path d="M512.3,267.5l6.8-32.3h-11.4l2.2-10.4h37.2l-2.2,10.4h-11.5l-6.8,32.3h-14.3Z" fill="#fff"/><path d="M533.7,267.5l25.4-42.7h14.9l7.4,42.7h-14.3l-1.5-8.5h-11.6l-5,8.5h-15.3ZM557.9,249h8L564,238.6L557.9,249Z" fill="#fff"/></g></g></svg>
