<?xml version="1.0" encoding="utf-8"?>
<!-- Generator: Adobe Illustrator 27.5.0, SVG Export Plug-In . SVG Version: 6.00 Build 0)  -->
<svg version="1.1" id="Layer_1" xmlns="http://www.w3.org/2000/svg" xmlns:xlink="http://www.w3.org/1999/xlink" x="0px" y="0px"
	 viewBox="0 0 411 181" style="enable-background:new 0 0 411 181;" xml:space="preserve">
<style type="text/css">
	.st0{fill:#F15F38;}
	.st1{fill:#FFFFFF;}
</style>
<g>
	<path class="st0" d="M218.3,34.4h25.6h5.6c15.4-0.5,30.6,10.4,26.7,33.1c-3.5,20-20.7,29.6-36.8,29.6H227l-2.1,9.9
		c-1.7,5.7-5.8,9.7-11.8,9.7h-12.7L218.3,34.4z"/>
	<path class="st1" d="M196.5,34.1h-22.1l-10.8,50.1c-1.4,6.5,3.6,12.7,10.2,12.7h25.4l4.2-21.7H188L196.5,34.1z"/>
	<path class="st1" d="M155.8,34.1h-8.3h-1.7l0,0.1c-3.7,0.6-6.8,2.9-8.5,6.3l-10.6,22.3l0.6-28.8h-7.8h-7.6h-6.5
		c-4.8,0-8.9,3.3-9.8,8L84,96.9h22l5.7-21.7l-1.1,21.7h16.7l9.5-21.7l-4.2,21.7h22.3l13.2-62.8H155.8z"/>
	<path class="st1" d="M244,49.2c-8.5,0-15.5,6.9-15.5,15.5c0,8.5,6.9,15.5,15.5,15.5c8.5,0,15.5-6.9,15.5-15.5
		C259.4,56.1,252.5,49.2,244,49.2z M254.1,57.5c1-0.3,2.2,0.7,2.6,2.1c0.4,1.5-0.1,2.9-1.1,3.2c-1,0.3-2.2-0.7-2.6-2.1
		C252.6,59.2,253.1,57.8,254.1,57.5z M244.6,50.9c1.5,0.1,2.7,0.9,2.7,1.9c0,1-1.3,1.7-2.9,1.6c-1.5-0.1-2.7-0.9-2.7-1.9
		C241.7,51.5,243,50.8,244.6,50.9z M231.2,58.7c0.4-1.5,1.6-2.4,2.6-2.1c1,0.3,1.5,1.7,1.1,3.2c-0.4,1.5-1.6,2.4-2.6,2.1
		C231.3,61.6,230.8,60.2,231.2,58.7z M235.2,73.8c-0.7,0.6-2.1,0.2-3.1-1c-1-1.2-1.2-2.6-0.5-3.2c0.7-0.6,2.1-0.2,3.1,1
		C235.8,71.8,236,73.2,235.2,73.8z M244.9,78.4c-1.5,0.4-2.9,0-3.1-0.9c-0.3-0.9,0.7-2,2.2-2.4c1.5-0.4,2.9,0,3.1,0.9
		C247.4,76.9,246.4,78,244.9,78.4z M244.8,68.2c-1.8,0-3.3-1.5-3.3-3.3c0-1.8,1.5-3.3,3.3-3.3c1.8,0,3.3,1.5,3.3,3.3
		C248.1,66.7,246.6,68.2,244.8,68.2z M255.6,71.9c-0.9,1.2-2.4,1.7-3.2,1.1c-0.9-0.6-0.8-2.2,0.1-3.4c0.9-1.2,2.4-1.7,3.2-1.1
		C256.6,69.2,256.6,70.7,255.6,71.9z"/>
</g>
</svg>
